<?xml version="1.0" encoding="utf-8"?>
<!-- Generator: Adobe Illustrator 23.0.1, SVG Export Plug-In . SVG Version: 6.00 Build 0)  -->
<svg version="1.1" id="Layer_1" xmlns="http://www.w3.org/2000/svg" xmlns:xlink="http://www.w3.org/1999/xlink" x="0px" y="0px"
	 viewBox="0 0 246 246" style="enable-background:new 0 0 246 246;" xml:space="preserve">
<style type="text/css">
	.st0{clip-path:url(#SVGID_2_);fill:#2C3136;}
	.st1{clip-path:url(#SVGID_4_);}
	.st2{fill:#D8AA89;}
	.st3{fill:#D0A384;}
	.st4{fill:#E5E5E5;}
	.st5{fill:#D9A989;}
	.st6{fill:#FFFFFF;}
	.st7{fill:#443D38;}
	.st8{fill:#1BDE7F;}
</style>
<g>
	<g>
		<g>
			<g>
				
					<image style="overflow:visible;opacity:0.7;enable-background:new    ;" width="426" height="426" xlink:href="B1B86DCFAFCB6CA2.png"  transform="matrix(1 0 0 1 -83 -83)">
				</image>
				<g>
					<g>
						<g>
							<defs>
								<circle id="SVGID_1_" cx="123" cy="123" r="123"/>
							</defs>
							<clipPath id="SVGID_2_">
								<use xlink:href="#SVGID_1_"  style="overflow:visible;"/>
							</clipPath>
							<circle class="st0" cx="123" cy="123" r="123"/>
						</g>
					</g>
				</g>
			</g>
			<g>
				<g>
					<defs>
						<circle id="SVGID_3_" cx="123" cy="123" r="123"/>
					</defs>
					<clipPath id="SVGID_4_">
						<use xlink:href="#SVGID_3_"  style="overflow:visible;"/>
					</clipPath>
					<g class="st1">
						<path class="st2" d="M153.4,101.5c0,28.1-13.6,50.9-30.4,50.9s-30.4-22.8-30.4-50.9s13.6-38.2,30.4-38.2
							S153.4,73.4,153.4,101.5z"/>
						<path class="st3" d="M123,63.2c16.8,0,30.4,10.1,30.4,38.2s-13.6,50.9-30.4,50.9"/>
						<ellipse class="st2" cx="156.9" cy="107.2" rx="5.7" ry="12.4"/>
						<ellipse class="st2" cx="89.7" cy="107.2" rx="5.7" ry="12.4"/>
						<path class="st4" d="M190.5,177c-5.7-6.3-51.2-15.5-51.2-15.5h-15.8h-1.4h-15.8c0,0-45.4,9.2-51.2,15.5
							c-5.7,6.3-11.5,81.6-11.5,81.6h79h0.3h79C202,258.6,196.3,183.4,190.5,177z"/>
						<path class="st5" d="M140.2,153.2c0,6.2-7.6,11.2-17,11.2s-17-5-17-11.2v-11.8h33.9L140.2,153.2L140.2,153.2z"/>
						<path class="st6" d="M114.4,175.3l-8-13.8v-8.3c0,6.2,7.6,11.2,17,11.2s17-5,17-11.2v8.3l-7.5,13.8l-9.2-10.9L114.4,175.3z"/>
						<path class="st7" d="M160.9,79.7c0-2.2,0-6.5-2.2-8.6c-1.1-2.2,1.1-1.1,1.1-1.1s-7.5-10.8-11.9-11.9c2.2-1.1,3.2-1.1,3.2-1.1
							s-8.6-3.2-16.2-3.2c0-1.1-1.1,0,0-2.2c-3.2,1.1-6.5,2.2-6.5,2.2s-19.4-2.2-29.1,5.4c-2.2,1.1-8.6,3.2-10.8,8.6
							c2.2,1.1,2.2,1.1,2.2,1.1s-4.3,0-6.5,5.4c0,0,2.2,0,2.2,1.1s-2.2,2.2-2.2,4.3c0,0-1.1,1.1-1.1,4.3c0,0,2.2,0,2.2,1.1
							S84.9,97.8,86,97.8c0,0.3,0.5,0.2,3.4-2.3c2.6-2.2,1.2,24.1,1.2,24.1s2.1,35.2,31.3,33.4c27.5-1.7,26.5-15,32.3-33.4
							c1.5-4.9-2.4-7.4,1.1-23.7c3.2,0,4.3,1.1,4.3,1.1s2.2-11.9,0-14C157.7,80.7,160.9,79.7,160.9,79.7z M129.7,135.7h-14
							c-2.2,0-3.2-3.2-1.1-4.3h16.2C132.9,131.4,131.8,135.7,129.7,135.7z M148,120.6c-2.2,2.2-7.5,8.6-8.6,10.8l-2.2-4.3l-14-3.2
							l-15.1,4.3l-1.1,3.2c-1.1-4.3-12.9-10.8-12.9-20.5s4.3-18.3,3.2-21.6c-1.1-11.9,6.5-17.2,6.5-17.2
							c12.9,11.5,28.4,14.6,45.3,12.9c2.2,2.2,2.2,18.3,3.2,19.4C153.4,105.5,153.4,118.5,148,120.6z"/>
						<polygon class="st8" points="123.6,164.4 118.4,170.2 123.6,175.3 128.7,170.2 						"/>
						<path class="st8" d="M123.6,166.1c0,0-9.2,50.6-8.4,83.3h8.4h8.4C132.7,216.7,123.6,166.1,123.6,166.1z"/>
					</g>
				</g>
			</g>
		</g>
	</g>
</g>
</svg>
