<svg xmlns="http://www.w3.org/2000/svg" viewBox="0 0 352.61 91.69"><defs><style>.cls-1{fill:#fff;}</style></defs><title>cloudpharmagut</title><g id="Layer_2" data-name="Layer 2"><g id="WebPage"><g id="Welcome_Block" data-name="Welcome Block"><path class="cls-1" d="M352.5,91.69a12.34,12.34,0,0,0,.11-2.09c0-15.79-15.37-28.52-34.34-28.52a39.61,39.61,0,0,0-17.12,3.85C288.32,49,267.46,38.68,243.88,38.68c-1.85,0-3.68-.14-5.49,0C227.69,16,202.54,0,173.2,0c-29.07,0-54,15.57-64.88,37.9a76.62,76.62,0,0,0-37.64-9.37C31.64,28.53,0,56.69,0,91.69H352.5Z"/></g></g></g></svg>