<?xml version="1.0" encoding="utf-8"?>
<!-- Generator: Adobe Illustrator 23.0.1, SVG Export Plug-In . SVG Version: 6.00 Build 0)  -->
<svg version="1.1" id="Layer_1" xmlns="http://www.w3.org/2000/svg" xmlns:xlink="http://www.w3.org/1999/xlink" x="0px" y="0px"
	 viewBox="0 0 320 320" style="enable-background:new 0 0 320 320;" xml:space="preserve">
<style type="text/css">
	.st0{fill:#FFFFFF;}
	.st1{fill:#878787;}
	.st2{fill:#BCBCBC;}
	.st3{fill:#2C3136;}
	.st4{fill:#246289;}
	.st5{fill:none;stroke:#8CC9BD;stroke-width:3;stroke-linecap:round;stroke-miterlimit:10;}
	.st6{fill:none;stroke:#C7BDF4;stroke-width:3;stroke-linecap:round;stroke-miterlimit:10;}
	.st7{fill:none;stroke:#E8DBB3;stroke-width:3;stroke-linecap:round;stroke-miterlimit:10;}
	.st8{fill:none;stroke:#F7931E;stroke-width:3;stroke-linecap:round;stroke-miterlimit:10;}
	.st9{fill:none;stroke:#00A99D;stroke-width:3;stroke-linecap:round;stroke-miterlimit:10;}
	.st10{fill:none;stroke:#FC85FF;stroke-width:3;stroke-linecap:round;stroke-miterlimit:10;}
	.st11{fill:none;stroke:#FFFFFF;stroke-width:3;stroke-linecap:round;stroke-miterlimit:10;}
	.st12{fill:none;stroke:#808080;stroke-width:3;stroke-linecap:round;stroke-miterlimit:10;}
</style>
<g>
	<g>
		<g>
			
				<image style="overflow:visible;opacity:0.7;" width="500" height="500" xlink:href="91EE2B36F6165DDC.png"  transform="matrix(1 0 0 1 -83 -83)">
			</image>
			<g>
				<circle class="st0" cx="160" cy="160" r="160"/>
			</g>
		</g>
	</g>
</g>
<g>
	<rect x="134" y="202.5" class="st1" width="52" height="18.8"/>
	<path class="st2" d="M244.9,205.6H75.1c-3.8,0-7-3.2-7-7v-82.1c0-3.8,3.2-7,7-7h169.7c3.9,0,7,3.2,7,7v82.1
		C251.9,202.4,248.7,205.6,244.9,205.6z"/>
	<path class="st3" d="M68.1,191.7V98.4c0-2.7,2.2-5,5-5h173.8c2.7,0,5,2.2,5,5v93.3"/>
	<rect x="73.6" y="99" class="st4" width="172.8" height="87"/>
	<circle class="st3" cx="160" cy="199.7" r="3.3"/>
	<rect x="120.2" y="218.9" class="st2" width="79.5" height="7.7"/>
	<g>
		<line class="st5" x1="102" y1="119" x2="125.5" y2="119"/>
		<line class="st6" x1="102" y1="131" x2="138.5" y2="131"/>
		<line class="st7" x1="102" y1="143" x2="115.5" y2="143"/>
		<line class="st7" x1="102" y1="155" x2="115.5" y2="155"/>
		<line class="st8" x1="168" y1="143" x2="181.5" y2="143"/>
		<line class="st9" x1="168" y1="155" x2="181.5" y2="155"/>
		<line class="st8" x1="102" y1="167" x2="133.5" y2="167"/>
		<line class="st10" x1="183.4" y1="177" x2="195.5" y2="177"/>
		<line class="st11" x1="146.5" y1="131" x2="164.5" y2="131"/>
		<line class="st12" x1="124.1" y1="143" x2="158.8" y2="143"/>
		<line class="st12" x1="124.1" y1="155" x2="158.5" y2="155"/>
		<line class="st5" x1="142.4" y1="167" x2="158.5" y2="167"/>
	</g>
</g>
</svg>
