<?xml version="1.0" encoding="UTF-8"?>
<svg id="Layer_2" data-name="Layer 2" xmlns="http://www.w3.org/2000/svg" viewBox="0 0 67.57 67.57">
  <defs>
    <style>
      .cls-1 {
        fill: #2c3136;
      }

      .cls-2 {
        opacity: .9;
      }
    </style>
  </defs>
  <g id="WebPage">
    <g id="ContactMe_Block" data-name="ContactMe Block">
      <g class="cls-2">
        <path class="cls-1" d="M67.57,12.67V54.9c0,3.49-1.24,6.48-3.72,8.95-2.48,2.48-5.46,3.72-8.95,3.72H12.67c-3.49,0-6.48-1.24-8.95-3.72-2.48-2.48-3.72-5.46-3.72-8.95V12.67C0,9.18,1.24,6.2,3.72,3.72S9.18,0,12.67,0H54.9c3.49,0,6.47,1.24,8.95,3.72,2.48,2.48,3.72,5.46,3.72,8.95Zm-11.26,8.53c-1.64,.73-3.42,1.23-5.32,1.5,1.99-1.17,3.36-2.89,4.09-5.15-1.91,1.11-3.87,1.86-5.9,2.24-1.79-1.94-4.03-2.9-6.73-2.9-2.55,0-4.73,.9-6.53,2.71s-2.71,3.98-2.71,6.53c0,.85,.07,1.55,.22,2.11-3.78-.2-7.33-1.16-10.65-2.86-3.31-1.7-6.13-3.97-8.45-6.82-.85,1.47-1.28,3.02-1.28,4.66,0,3.34,1.33,5.91,4,7.7-1.38-.03-2.85-.41-4.4-1.14v.09c0,2.2,.73,4.16,2.2,5.87,1.47,1.72,3.27,2.78,5.41,3.19-.85,.24-1.6,.35-2.24,.35-.38,0-.95-.06-1.72-.18,.62,1.85,1.71,3.37,3.28,4.58,1.57,1.2,3.35,1.82,5.35,1.85-3.4,2.64-7.23,3.96-11.48,3.96-.76,0-1.5-.04-2.2-.13,4.34,2.76,9.06,4.14,14.17,4.14,3.28,0,6.36-.52,9.24-1.56,2.87-1.04,5.34-2.43,7.39-4.18,2.05-1.74,3.82-3.75,5.3-6.03,1.48-2.27,2.58-4.65,3.3-7.13,.72-2.48,1.08-4.95,1.08-7.41,0-.53-.02-.92-.04-1.19,1.85-1.32,3.39-2.92,4.62-4.8Z"/>
      </g>
    </g>
  </g>
</svg>