<?xml version="1.0" encoding="UTF-8"?>
<svg id="Layer_2" data-name="Layer 2" xmlns="http://www.w3.org/2000/svg" viewBox="0 0 67.57 67.57">
  <defs>
    <style>
      .cls-1 {
        fill: #2c3136;
      }

      .cls-2 {
        opacity: .9;
      }
    </style>
  </defs>
  <g id="WebPage">
    <g id="ContactMe_Block" data-name="ContactMe Block">
      <g class="cls-2">
        <path class="cls-1" d="M54.9,0c3.49,0,6.47,1.24,8.95,3.72,2.48,2.48,3.72,5.46,3.72,8.95V54.9c0,3.49-1.24,6.48-3.72,8.95-2.48,2.48-5.46,3.72-8.95,3.72h-8.27v-26.18h8.75l1.32-10.21h-10.07v-6.51c0-1.64,.34-2.87,1.03-3.7,.69-.82,2.03-1.23,4.03-1.23l5.37-.04V10.6c-1.85-.26-4.46-.4-7.83-.4-3.99,0-7.18,1.17-9.57,3.52-2.39,2.35-3.59,5.66-3.59,9.94v7.52h-8.8v10.21h8.8v26.18H12.67c-3.49,0-6.48-1.24-8.95-3.72-2.48-2.48-3.72-5.46-3.72-8.95V12.67C0,9.18,1.24,6.2,3.72,3.72S9.18,0,12.67,0H54.9Z"/>
      </g>
    </g>
  </g>
</svg>