<?xml version="1.0" encoding="utf-8"?>
<!-- Generator: Adobe Illustrator 22.1.0, SVG Export Plug-In . SVG Version: 6.00 Build 0)  -->
<svg version="1.1" id="Layer_1" xmlns="http://www.w3.org/2000/svg" xmlns:xlink="http://www.w3.org/1999/xlink" x="0px" y="0px"
	 viewBox="0 0 320 320" style="enable-background:new 0 0 320 320;" xml:space="preserve">
<style type="text/css">
	.st0{fill:none;}
	.st1{fill:#B9485A;}
	.st2{fill:#CE9770;}
	.st3{fill:#402F3F;}
	.st4{clip-path:url(#SVGID_1_);}
	.st5{clip-path:url(#SVGID_1_);fill:#402F3F;}
	.st6{fill:#A6B890;}
	.st7{clip-path:url(#SVGID_1_);fill:url(#SVGID_2_);stroke:#402F3F;stroke-miterlimit:10;}
	.st8{clip-path:url(#SVGID_1_);fill:url(#SVGID_3_);}
	.st9{clip-path:url(#SVGID_1_);fill:url(#SVGID_4_);}
	.st10{clip-path:url(#SVGID_1_);fill:#B9485A;}
	.st11{clip-path:url(#SVGID_1_);fill:#CE9770;}
	.st12{clip-path:url(#SVGID_1_);fill:none;stroke:#A6B890;stroke-width:24;stroke-miterlimit:10;}
	.st13{clip-path:url(#SVGID_1_);fill:none;stroke:#B9485A;stroke-width:24;stroke-miterlimit:10;}
	.st14{clip-path:url(#SVGID_1_);fill:none;stroke:#CE9770;stroke-width:24;stroke-miterlimit:10;}
	.st15{clip-path:url(#SVGID_1_);fill:none;stroke:#402F3F;stroke-width:24;stroke-miterlimit:10;}
	.st16{clip-path:url(#SVGID_1_);fill:#A6B890;}
	.st17{fill:none;stroke:url(#SVGID_5_);stroke-miterlimit:10;}
	.st18{fill:none;stroke:url(#SVGID_6_);stroke-miterlimit:10;}
</style>
<pattern  width="76" height="76" patternUnits="userSpaceOnUse" id="Unnamed_Pattern" viewBox="0 -76 76 76" style="overflow:visible;">
	<g>
		<rect y="-76" class="st0" width="76" height="76"/>
		<g>
			<circle class="st1" cx="38" cy="-38" r="38"/>
		</g>
	</g>
</pattern>
<pattern  width="32" height="32" patternUnits="userSpaceOnUse" id="Unnamed_Pattern_2" viewBox="0 -32 32 32" style="overflow:visible;">
	<g>
		<rect y="-32" class="st0" width="32" height="32"/>
		<g>
			<circle class="st2" cx="16" cy="-16" r="10.7"/>
		</g>
	</g>
</pattern>
<pattern  width="32" height="32" patternUnits="userSpaceOnUse" id="Unnamed_Pattern_3" viewBox="0 -32 32 32" style="overflow:visible;">
	<g>
		<rect y="-32" class="st0" width="32" height="32"/>
		<g>
			<circle class="st3" cx="16" cy="-16" r="10.7"/>
		</g>
	</g>
</pattern>
<g>
	<defs>
		<rect id="SVGID_8_" x="0" y="-0.5" width="319.7" height="320.6"/>
	</defs>
	<use xlink:href="#SVGID_8_"  style="overflow:visible;fill:#FFFFFF;"/>
	<clipPath id="SVGID_1_">
		<use xlink:href="#SVGID_8_"  style="overflow:visible;"/>
	</clipPath>
	<g class="st4">
		<path class="st2" d="M59.5,176c-0.2,0.1-0.4,0.2-0.8,0.4l58.4,58.4c0.3-0.4,0.3-0.6,0.4-0.8L59.5,176z"/>
		<path class="st2" d="M61.6,175c-0.2,0.1-0.5,0.2-0.8,0.4l57.4,57.4c0.2-0.4,0.3-0.6,0.4-0.8L61.6,175z"/>
		<path class="st2" d="M68.3,172.5c-0.3,0-0.5,0.1-1,0.3l53.4,53.4c0.2-0.4,0.2-0.7,0.3-1L68.3,172.5z"/>
		<path class="st2" d="M63.7,174.1c-0.2,0.1-0.5,0.1-0.9,0.4l56.3,56.3c0.2-0.4,0.3-0.6,0.4-0.9L63.7,174.1z"/>
		<path class="st2" d="M66,173.2c-0.3,0.1-0.5,0.1-0.9,0.3l55,55c0.2-0.4,0.3-0.7,0.3-0.9L66,173.2z"/>
		<path class="st2" d="M70.8,171.9c-0.3,0-0.6,0-1,0.2l51.7,51.7c0.2-0.4,0.2-0.7,0.2-1L70.8,171.9z"/>
		<path class="st2" d="M76.2,171.1c-0.3,0-0.6,0-1.1,0.1l47.3,47.3c0.1-0.5,0.1-0.8,0.1-1.1L76.2,171.1z"/>
		<path class="st2" d="M79.1,171c-0.3,0-0.7-0.1-1.2,0l44.7,44.7c0.1-0.5,0.1-0.8,0-1.2L79.1,171z"/>
		<path class="st2" d="M73.4,171.4c-0.3,0-0.6,0-1.1,0.2l49.7,49.7c0.2-0.5,0.2-0.8,0.2-1.1L73.4,171.4z"/>
		<path class="st2" d="M52.2,181c-0.2,0.1-0.3,0.3-0.7,0.6l60.5,60.5c0.3-0.3,0.4-0.5,0.6-0.7L52.2,181z"/>
		<path class="st2" d="M89.4,172.1c-0.5-0.2-0.9-0.3-1.6-0.3l34,34c0-0.6-0.2-1.1-0.3-1.6L89.4,172.1z"/>
		<path class="st2" d="M122.6,212.7c0.1-0.5,0-0.9-0.1-1.3L82.2,171c-0.4-0.1-0.8-0.1-1.3-0.1L122.6,212.7z"/>
		<path class="st2" d="M93.7,173.3c-0.6-0.2-1.1-0.5-1.8-0.6l29,29c-0.1-0.7-0.3-1.3-0.6-1.8L93.7,173.3z"/>
		<path class="st2" d="M85.6,171.4c-0.4-0.1-0.8-0.2-1.4-0.2l38.2,38.2c0-0.6-0.1-1-0.2-1.4L85.6,171.4z"/>
		<path class="st2" d="M37.2,209.1c0,0.3,0,0.6-0.1,1.1l46.3,46.3c0.5-0.1,0.8-0.1,1.1-0.1L37.2,209.1z"/>
		<path class="st2" d="M55.7,178.4c-0.2,0.1-0.4,0.2-0.7,0.5l59.8,59.8c0.3-0.3,0.4-0.5,0.5-0.7L55.7,178.4z"/>
		<path class="st2" d="M99,175.5c-0.7-0.4-1.4-0.8-2.3-1.1l22.5,22.5c-0.2-0.9-0.7-1.6-1.1-2.3L99,175.5z"/>
		<path class="st2" d="M53.9,179.6c-0.2,0.1-0.4,0.3-0.7,0.5l60.2,60.2c0.3-0.3,0.4-0.5,0.5-0.7L53.9,179.6z"/>
		<path class="st2" d="M57.6,177.2c-0.2,0.1-0.4,0.2-0.8,0.5l59.2,59.2c0.3-0.4,0.4-0.6,0.5-0.8L57.6,177.2z"/>
		<path class="st2" d="M110.5,243.7c0.3-0.3,0.5-0.5,0.6-0.6l-60.6-60.6c-0.2,0.1-0.3,0.3-0.6,0.6L110.5,243.7z"/>
		<path class="st2" d="M60.6,252.1c0.9,0.3,1.6,0.7,2.3,1.1l-22.5-22.5c0.4,0.7,0.8,1.4,1.1,2.3L60.6,252.1z"/>
		<path class="st2" d="M80.5,256.7c0.5-0.1,0.9-0.1,1.2,0L37,211.9c0,0.3,0.1,0.7,0,1.2L80.5,256.7z"/>
		<path class="st2" d="M37.7,221.9c0.2,0.5,0.3,0.9,0.3,1.6l32.2,32.2c0.6,0,1.1,0.2,1.6,0.3L37.7,221.9z"/>
		<path class="st2" d="M47.5,185.6c-0.1,0.2-0.3,0.3-0.6,0.7l60.4,60.4c0.3-0.3,0.5-0.4,0.7-0.6L47.5,185.6z"/>
		<path class="st2" d="M49,184c-0.2,0.2-0.3,0.3-0.6,0.6l60.6,60.6c0.3-0.3,0.5-0.4,0.6-0.6L49,184z"/>
		<path class="st2" d="M46.1,187.3c-0.1,0.2-0.3,0.4-0.5,0.7l60,60c0.3-0.3,0.5-0.4,0.7-0.5L46.1,187.3z"/>
		<path class="st2" d="M44,237.4c1.7,2.3,3.4,4.6,5.5,6.7c2.1,2.1,4.4,3.8,6.7,5.5L44,237.4z"/>
		<path class="st2" d="M115.6,190.2c-1.5-2.4-3.4-4.6-5.5-6.7s-4.3-4-6.7-5.5L115.6,190.2z"/>
		<path class="st2" d="M37.2,218.3c0.1,0.4,0.2,0.8,0.2,1.4l36.6,36.6c0.6,0,1,0.1,1.4,0.2L37.2,218.3z"/>
		<path class="st2" d="M36.9,215c0.1,0.4,0.1,0.8,0.1,1.3l40.3,40.3c0.5-0.1,0.9,0,1.3,0.1L36.9,215z"/>
		<path class="st2" d="M38.7,225.9c0.2,0.5,0.5,1.1,0.6,1.8l26.6,26.6c0.7,0.1,1.3,0.3,1.8,0.6L38.7,225.9z"/>
		<path class="st2" d="M38.1,203.8c0,0.3-0.1,0.6-0.2,1l50.9,50.9c0.4-0.2,0.7-0.2,1-0.2L38.1,203.8z"/>
		<path class="st2" d="M39.5,199.1c-0.1,0.2-0.1,0.5-0.3,0.9l54.4,54.4c0.4-0.2,0.7-0.3,0.9-0.3L39.5,199.1z"/>
		<path class="st2" d="M38.8,201.4c0,0.3-0.1,0.5-0.3,1l52.8,52.8c0.4-0.2,0.7-0.2,1-0.3L38.8,201.4z"/>
		<path class="st2" d="M37.6,206.4c0,0.3,0,0.6-0.2,1.1l48.8,48.8c0.5-0.2,0.8-0.2,1.1-0.2L37.6,206.4z"/>
		<path class="st2" d="M44.8,189c-0.1,0.2-0.2,0.4-0.5,0.7l59.5,59.5c0.3-0.3,0.5-0.4,0.7-0.5L44.8,189z"/>
		<path class="st2" d="M42.4,192.8c-0.1,0.2-0.2,0.4-0.4,0.8l58,58c0.4-0.2,0.6-0.3,0.8-0.4L42.4,192.8z"/>
		<path class="st2" d="M43.6,190.9c-0.1,0.2-0.2,0.4-0.5,0.8l58.9,58.9c0.4-0.3,0.6-0.4,0.8-0.5L43.6,190.9z"/>
		<path class="st2" d="M41.4,194.8c-0.1,0.2-0.2,0.4-0.4,0.8l57,57c0.4-0.2,0.6-0.3,0.8-0.4L41.4,194.8z"/>
		<path class="st2" d="M40.4,196.9c-0.1,0.2-0.1,0.5-0.4,0.9l55.8,55.8c0.4-0.2,0.6-0.3,0.9-0.4L40.4,196.9z"/>
	</g>
	<circle class="st5" cx="172.9" cy="29.2" r="17.9"/>
	<g class="st4">
		<path class="st6" d="M-13.2,279.3c-0.2,0.1-0.4,0.2-0.8,0.4l58.4,58.4c0.3-0.4,0.3-0.6,0.4-0.8L-13.2,279.3z"/>
		<path class="st6" d="M-11.1,278.3c-0.2,0.1-0.5,0.2-0.8,0.4l57.4,57.4c0.2-0.4,0.3-0.6,0.4-0.8L-11.1,278.3z"/>
		<path class="st6" d="M-4.4,275.8c-0.3,0-0.5,0.1-1,0.3l53.4,53.4c0.2-0.4,0.2-0.7,0.3-1L-4.4,275.8z"/>
		<path class="st6" d="M-9,277.4c-0.2,0.1-0.5,0.1-0.9,0.4L46.4,334c0.2-0.4,0.3-0.6,0.4-0.9L-9,277.4z"/>
		<path class="st6" d="M-6.8,276.5c-0.3,0.1-0.5,0.1-0.9,0.3l55,55c0.2-0.4,0.3-0.7,0.3-0.9L-6.8,276.5z"/>
		<path class="st6" d="M-1.9,275.2c-0.3,0-0.6,0-1,0.2l51.7,51.7c0.2-0.4,0.2-0.7,0.2-1L-1.9,275.2z"/>
		<path class="st6" d="M3.4,274.4c-0.3,0-0.6,0-1.1,0.1l47.3,47.3c0.1-0.5,0.1-0.8,0.1-1.1L3.4,274.4z"/>
		<path class="st6" d="M6.4,274.3c-0.3,0-0.7-0.1-1.2,0L49.9,319c0.1-0.5,0.1-0.8,0-1.2L6.4,274.3z"/>
		<path class="st6" d="M0.7,274.7c-0.3,0-0.6,0-1.1,0.2l49.7,49.7c0.2-0.5,0.2-0.8,0.2-1.1L0.7,274.7z"/>
		<path class="st6" d="M-20.5,284.3c-0.2,0.1-0.3,0.3-0.7,0.6l60.5,60.5c0.3-0.3,0.4-0.5,0.6-0.7L-20.5,284.3z"/>
		<path class="st6" d="M16.7,275.3c-0.5-0.2-0.9-0.3-1.6-0.3l34,34c0-0.6-0.2-1.1-0.3-1.6L16.7,275.3z"/>
		<path class="st6" d="M49.9,316c0.1-0.5,0-0.9-0.1-1.3L9.5,274.3c-0.4-0.1-0.8-0.1-1.3-0.1L49.9,316z"/>
		<path class="st6" d="M21,276.6c-0.6-0.2-1.1-0.5-1.8-0.6l29,29c-0.1-0.7-0.3-1.3-0.6-1.8L21,276.6z"/>
		<path class="st6" d="M12.9,274.7c-0.4-0.1-0.8-0.2-1.4-0.2l38.2,38.2c0-0.6-0.1-1-0.2-1.4L12.9,274.7z"/>
		<path class="st6" d="M-35.5,312.4c0,0.3,0,0.6-0.1,1.1l46.3,46.3c0.5-0.1,0.8-0.1,1.1-0.1L-35.5,312.4z"/>
		<path class="st6" d="M-17,281.6c-0.2,0.1-0.4,0.2-0.7,0.5L42,341.9c0.3-0.3,0.4-0.5,0.5-0.7L-17,281.6z"/>
		<path class="st6" d="M26.3,278.8c-0.7-0.4-1.4-0.8-2.3-1.1l22.5,22.5c-0.2-0.9-0.7-1.6-1.1-2.3L26.3,278.8z"/>
		<path class="st6" d="M-18.8,282.9c-0.2,0.1-0.4,0.3-0.7,0.5l60.2,60.2c0.3-0.3,0.4-0.5,0.5-0.7L-18.8,282.9z"/>
		<path class="st6" d="M-15.2,280.4c-0.2,0.1-0.4,0.2-0.8,0.5l59.2,59.2c0.3-0.4,0.4-0.6,0.5-0.8L-15.2,280.4z"/>
		<path class="st6" d="M37.8,347c0.3-0.3,0.5-0.5,0.6-0.6l-60.6-60.6c-0.2,0.1-0.3,0.3-0.6,0.6L37.8,347z"/>
		<path class="st6" d="M-12.2,355.4c0.9,0.3,1.6,0.7,2.3,1.1L-32.3,334c0.4,0.7,0.8,1.4,1.1,2.3L-12.2,355.4z"/>
		<path class="st6" d="M7.8,360c0.5-0.1,0.9-0.1,1.2,0l-44.7-44.7c0,0.3,0.1,0.7,0,1.2L7.8,360z"/>
		<path class="st6" d="M-35,325.2c0.2,0.5,0.3,0.9,0.3,1.6l32.2,32.2c0.6,0,1.1,0.2,1.6,0.3L-35,325.2z"/>
		<path class="st6" d="M-25.2,288.9c-0.1,0.2-0.3,0.3-0.6,0.7l60.4,60.4c0.3-0.3,0.5-0.4,0.7-0.6L-25.2,288.9z"/>
		<path class="st6" d="M-23.7,287.3c-0.2,0.2-0.3,0.3-0.6,0.6l60.6,60.6c0.3-0.3,0.5-0.4,0.6-0.6L-23.7,287.3z"/>
		<path class="st6" d="M-26.6,290.5c-0.1,0.2-0.3,0.4-0.5,0.7l60,60c0.3-0.3,0.5-0.4,0.7-0.5L-26.6,290.5z"/>
		<path class="st6" d="M-28.7,340.7c1.7,2.3,3.4,4.6,5.5,6.7s4.4,3.8,6.7,5.5L-28.7,340.7z"/>
		<path class="st6" d="M42.8,293.5c-1.5-2.4-3.4-4.6-5.5-6.7s-4.3-4-6.7-5.5L42.8,293.5z"/>
		<path class="st6" d="M-35.6,321.6c0.1,0.4,0.2,0.8,0.2,1.4l36.6,36.6c0.6,0,1,0.1,1.4,0.2L-35.6,321.6z"/>
		<path class="st6" d="M-35.8,318.3c0.1,0.4,0.1,0.8,0.1,1.3l40.3,40.3c0.5-0.1,0.9,0,1.3,0.1L-35.8,318.3z"/>
		<path class="st6" d="M-34.1,329.2c0.2,0.5,0.5,1.1,0.6,1.8l26.6,26.6c0.7,0.1,1.3,0.3,1.8,0.6L-34.1,329.2z"/>
		<path class="st6" d="M-34.6,307.1c0,0.3-0.1,0.6-0.2,1L16,359c0.4-0.2,0.7-0.2,1-0.2L-34.6,307.1z"/>
		<path class="st6" d="M-33.2,302.4c-0.1,0.2-0.1,0.5-0.3,0.9l54.4,54.4c0.4-0.2,0.7-0.3,0.9-0.3L-33.2,302.4z"/>
		<path class="st6" d="M-34,304.7c0,0.3-0.1,0.5-0.3,1l52.8,52.8c0.4-0.2,0.7-0.2,1-0.3L-34,304.7z"/>
		<path class="st6" d="M-35.2,309.7c0,0.3,0,0.6-0.2,1.1l48.8,48.8c0.5-0.2,0.8-0.2,1.1-0.2L-35.2,309.7z"/>
		<path class="st6" d="M-27.9,292.3c-0.1,0.2-0.2,0.4-0.5,0.7l59.5,59.5c0.3-0.3,0.5-0.4,0.7-0.5L-27.9,292.3z"/>
		<path class="st6" d="M-30.3,296.1c-0.1,0.2-0.2,0.4-0.4,0.8l58,58c0.4-0.2,0.6-0.3,0.8-0.4L-30.3,296.1z"/>
		<path class="st6" d="M-29.1,294.1c-0.1,0.2-0.2,0.4-0.5,0.8l58.9,58.9c0.4-0.3,0.6-0.4,0.8-0.5L-29.1,294.1z"/>
		<path class="st6" d="M-31.4,298.1c-0.1,0.2-0.2,0.4-0.4,0.8l57,57c0.4-0.2,0.6-0.3,0.8-0.4L-31.4,298.1z"/>
		<path class="st6" d="M-32.3,300.2c-0.1,0.2-0.1,0.5-0.4,0.9l55.8,55.8c0.4-0.2,0.6-0.3,0.9-0.4L-32.3,300.2z"/>
	</g>
	<g class="st4">
		<path class="st1" d="M27.2,116.2c-0.2,0.1-0.4,0.2-0.7,0.4l50.8,50.8c0.2-0.3,0.3-0.5,0.4-0.7L27.2,116.2z"/>
		<path class="st1" d="M29,115.3c-0.2,0.1-0.4,0.1-0.7,0.3l50,50c0.2-0.3,0.3-0.5,0.3-0.7L29,115.3z"/>
		<path class="st1" d="M34.8,113.2c-0.2,0-0.5,0.1-0.8,0.2l46.5,46.5c0.2-0.4,0.2-0.6,0.2-0.8L34.8,113.2z"/>
		<path class="st1" d="M30.8,114.5c-0.2,0.1-0.4,0.1-0.8,0.3l49,49c0.2-0.3,0.3-0.5,0.3-0.8L30.8,114.5z"/>
		<path class="st1" d="M32.8,113.8c-0.2,0-0.4,0.1-0.8,0.3l47.8,47.8c0.2-0.4,0.2-0.6,0.3-0.8L32.8,113.8z"/>
		<path class="st1" d="M37,112.6c-0.2,0-0.5,0-0.9,0.2l44.9,44.9c0.2-0.4,0.2-0.6,0.2-0.9L37,112.6z"/>
		<path class="st1" d="M41.7,111.9c-0.3,0-0.6,0-1,0.1l41.2,41.2c0.1-0.4,0.1-0.7,0.1-1L41.7,111.9z"/>
		<path class="st1" d="M44.2,111.8c-0.3,0-0.6-0.1-1,0l38.9,38.9c0.1-0.4,0.1-0.7,0-1L44.2,111.8z"/>
		<path class="st1" d="M39.3,112.2c-0.3,0-0.5,0-0.9,0.1l43.2,43.2c0.1-0.4,0.1-0.7,0.1-0.9L39.3,112.2z"/>
		<path class="st1" d="M20.8,120.5c-0.1,0.1-0.3,0.2-0.6,0.5l52.6,52.6c0.3-0.3,0.4-0.4,0.5-0.6L20.8,120.5z"/>
		<path class="st1" d="M53.2,112.7c-0.4-0.1-0.8-0.3-1.4-0.3l29.6,29.6c0-0.5-0.1-0.9-0.3-1.4L53.2,112.7z"/>
		<path class="st1" d="M82.1,148.1c0.1-0.5,0-0.8,0-1.1l-35.1-35.1c-0.3-0.1-0.7-0.1-1.1,0L82.1,148.1z"/>
		<path class="st1" d="M56.9,113.8c-0.5-0.2-1-0.4-1.6-0.5l25.2,25.2c-0.1-0.6-0.3-1.1-0.5-1.6L56.9,113.8z"/>
		<path class="st1" d="M49.9,112.1c-0.4-0.1-0.7-0.2-1.2-0.1l33.2,33.2c0-0.5,0-0.9-0.1-1.2L49.9,112.1z"/>
		<path class="st1" d="M7.8,144.9c0,0.3,0,0.6-0.1,1L48,186.2c0.4-0.1,0.7-0.1,1-0.1L7.8,144.9z"/>
		<path class="st1" d="M23.9,118.2c-0.2,0.1-0.3,0.2-0.6,0.4l52,52c0.2-0.3,0.3-0.5,0.4-0.6L23.9,118.2z"/>
		<path class="st1" d="M61.5,115.7c-0.6-0.4-1.3-0.7-2-0.9l19.6,19.6c-0.2-0.7-0.6-1.4-0.9-2L61.5,115.7z"/>
		<path class="st1" d="M22.3,119.4c-0.2,0.1-0.3,0.2-0.6,0.5l52.4,52.4c0.2-0.3,0.4-0.4,0.5-0.6L22.3,119.4z"/>
		<path class="st1" d="M25.5,117.2c-0.2,0.1-0.4,0.2-0.7,0.4l51.5,51.5c0.2-0.3,0.3-0.5,0.4-0.7L25.5,117.2z"/>
		<path class="st1" d="M71.6,175c0.3-0.3,0.4-0.4,0.5-0.5l-52.7-52.7c-0.1,0.1-0.3,0.3-0.5,0.5L71.6,175z"/>
		<path class="st1" d="M28.1,182.4c0.8,0.2,1.4,0.6,2,0.9l-19.6-19.6c0.3,0.6,0.7,1.2,0.9,2L28.1,182.4z"/>
		<path class="st1" d="M45.4,186.4c0.4-0.1,0.7-0.1,1,0L7.6,147.4c0,0.3,0.1,0.6,0,1L45.4,186.4z"/>
		<path class="st1" d="M8.2,156.1c0.1,0.4,0.3,0.8,0.3,1.4l28,28c0.5,0,1,0.1,1.4,0.3L8.2,156.1z"/>
		<path class="st1" d="M16.8,124.5c-0.1,0.1-0.2,0.3-0.5,0.6l52.5,52.5c0.3-0.3,0.4-0.4,0.6-0.5L16.8,124.5z"/>
		<path class="st1" d="M18.1,123.1c-0.1,0.1-0.3,0.3-0.5,0.5l52.7,52.7c0.3-0.3,0.4-0.4,0.5-0.5L18.1,123.1z"/>
		<path class="st1" d="M15.6,126c-0.1,0.2-0.2,0.3-0.5,0.6l52.2,52.2c0.3-0.2,0.4-0.4,0.6-0.5L15.6,126z"/>
		<path class="st1" d="M13.7,169.6c1.4,2,3,4,4.8,5.8c1.8,1.8,3.9,3.3,5.8,4.8L13.7,169.6z"/>
		<path class="st1" d="M76,128.6c-1.3-2.1-3-4-4.8-5.8c-1.8-1.8-3.7-3.5-5.8-4.8L76,128.6z"/>
		<path class="st1" d="M7.7,152.9c0.1,0.4,0.2,0.7,0.1,1.2L39.7,186c0.5,0,0.9,0.1,1.2,0.1L7.7,152.9z"/>
		<path class="st1" d="M7.6,150.1c0.1,0.3,0.1,0.7,0,1.1l35.1,35.1c0.5-0.1,0.8,0,1.1,0L7.6,150.1z"/>
		<path class="st1" d="M9,159.6c0.2,0.5,0.4,1,0.5,1.6l23.2,23.2c0.6,0.1,1.1,0.3,1.6,0.5L9,159.6z"/>
		<path class="st1" d="M8.6,140.4c0,0.2,0,0.5-0.2,0.9l44.3,44.3c0.4-0.2,0.6-0.2,0.9-0.2L8.6,140.4z"/>
		<path class="st1" d="M9.8,136.3c-0.1,0.2-0.1,0.4-0.3,0.8l47.3,47.3c0.4-0.2,0.6-0.2,0.8-0.3L9.8,136.3z"/>
		<path class="st1" d="M9.1,138.3c0,0.2-0.1,0.5-0.2,0.8L54.8,185c0.4-0.2,0.6-0.2,0.8-0.2L9.1,138.3z"/>
		<path class="st1" d="M8.1,142.6c0,0.3,0,0.5-0.1,0.9l42.4,42.4c0.4-0.1,0.7-0.1,0.9-0.1L8.1,142.6z"/>
		<path class="st1" d="M14.4,127.5c-0.1,0.2-0.2,0.3-0.4,0.6l51.8,51.8c0.3-0.2,0.5-0.3,0.6-0.4L14.4,127.5z"/>
		<path class="st1" d="M12.3,130.8c-0.1,0.2-0.2,0.4-0.4,0.7l50.5,50.5c0.3-0.2,0.5-0.3,0.7-0.4L12.3,130.8z"/>
		<path class="st1" d="M13.3,129.1c-0.1,0.2-0.2,0.3-0.4,0.7L64.1,181c0.3-0.2,0.5-0.3,0.7-0.4L13.3,129.1z"/>
		<path class="st1" d="M11.4,132.5c-0.1,0.2-0.1,0.4-0.3,0.7l49.6,49.6c0.3-0.2,0.5-0.3,0.7-0.3L11.4,132.5z"/>
		<path class="st1" d="M10.6,134.4c-0.1,0.2-0.1,0.4-0.3,0.8l48.5,48.5c0.3-0.2,0.5-0.3,0.8-0.3L10.6,134.4z"/>
	</g>
	<g class="st4">
		<path class="st6" d="M197,141.9c-0.1,0-0.2,0.1-0.4,0.2l30.5,30.5c0.1-0.2,0.2-0.3,0.2-0.4L197,141.9z"/>
		<path class="st6" d="M198.1,141.4c-0.1,0-0.2,0.1-0.4,0.2l30,30c0.1-0.2,0.2-0.3,0.2-0.4L198.1,141.4z"/>
		<path class="st6" d="M201.6,140.1c-0.1,0-0.3,0-0.5,0.1l27.9,27.9c0.1-0.2,0.1-0.4,0.1-0.5L201.6,140.1z"/>
		<path class="st6" d="M199.2,140.9c-0.1,0-0.3,0.1-0.5,0.2l29.4,29.4c0.1-0.2,0.2-0.3,0.2-0.5L199.2,140.9z"/>
		<path class="st6" d="M200.4,140.4c-0.1,0-0.3,0.1-0.5,0.2l28.7,28.7c0.1-0.2,0.1-0.3,0.2-0.5L200.4,140.4z"/>
		<path class="st6" d="M202.9,139.7c-0.1,0-0.3,0-0.5,0.1l27,27c0.1-0.2,0.1-0.4,0.1-0.5L202.9,139.7z"/>
		<path class="st6" d="M205.7,139.3c-0.2,0-0.3,0-0.6,0.1l24.8,24.8c0.1-0.2,0.1-0.4,0.1-0.6L205.7,139.3z"/>
		<path class="st6" d="M207.2,139.3c-0.2,0-0.4,0-0.6,0l23.4,23.4c0.1-0.3,0-0.4,0-0.6L207.2,139.3z"/>
		<path class="st6" d="M204.2,139.5c-0.2,0-0.3,0-0.6,0.1l26,26c0.1-0.2,0.1-0.4,0.1-0.6L204.2,139.5z"/>
		<path class="st6" d="M193.2,144.5c-0.1,0.1-0.2,0.1-0.3,0.3l31.6,31.6c0.2-0.2,0.2-0.3,0.3-0.3L193.2,144.5z"/>
		<path class="st6" d="M212.6,139.8c-0.2-0.1-0.5-0.2-0.8-0.2l17.8,17.8c0-0.3-0.1-0.6-0.2-0.8L212.6,139.8z"/>
		<path class="st6" d="M230,161.1c0-0.3,0-0.5,0-0.7l-21.1-21.1c-0.2,0-0.4-0.1-0.7,0L230,161.1z"/>
		<path class="st6" d="M214.9,140.5c-0.3-0.1-0.6-0.3-0.9-0.3l15.2,15.2c0-0.4-0.2-0.7-0.3-0.9L214.9,140.5z"/>
		<path class="st6" d="M210.6,139.5c-0.2-0.1-0.4-0.1-0.7-0.1l20,20c0-0.3,0-0.5-0.1-0.7L210.6,139.5z"/>
		<path class="st6" d="M185.3,159.2c0,0.2,0,0.3-0.1,0.6l24.2,24.2c0.3-0.1,0.4-0.1,0.6-0.1L185.3,159.2z"/>
		<path class="st6" d="M195,143.1c-0.1,0.1-0.2,0.1-0.4,0.3l31.2,31.2c0.1-0.2,0.2-0.3,0.3-0.4L195,143.1z"/>
		<path class="st6" d="M217.6,141.6c-0.4-0.2-0.8-0.4-1.2-0.6l11.8,11.8c-0.1-0.5-0.3-0.8-0.6-1.2L217.6,141.6z"/>
		<path class="st6" d="M194.1,143.8c-0.1,0.1-0.2,0.1-0.4,0.3l31.5,31.5c0.1-0.2,0.2-0.3,0.3-0.4L194.1,143.8z"/>
		<path class="st6" d="M196,142.5c-0.1,0.1-0.2,0.1-0.4,0.2l30.9,30.9c0.1-0.2,0.2-0.3,0.2-0.4L196,142.5z"/>
		<path class="st6" d="M223.7,177.3c0.2-0.2,0.2-0.2,0.3-0.3l-31.7-31.7c-0.1,0.1-0.2,0.2-0.3,0.3L223.7,177.3z"/>
		<path class="st6" d="M197.5,181.7c0.5,0.1,0.8,0.4,1.2,0.6L187,170.5c0.2,0.4,0.4,0.7,0.6,1.2L197.5,181.7z"/>
		<path class="st6" d="M207.9,184.1c0.3-0.1,0.4,0,0.6,0l-23.4-23.4c0,0.2,0,0.4,0,0.6L207.9,184.1z"/>
		<path class="st6" d="M185.6,165.9c0.1,0.2,0.2,0.5,0.2,0.8l16.8,16.8c0.3,0,0.6,0.1,0.8,0.2L185.6,165.9z"/>
		<path class="st6" d="M190.7,146.9c-0.1,0.1-0.1,0.2-0.3,0.3l31.6,31.6c0.2-0.2,0.3-0.2,0.3-0.3L190.7,146.9z"/>
		<path class="st6" d="M191.5,146.1c-0.1,0.1-0.2,0.2-0.3,0.3l31.7,31.7c0.2-0.2,0.2-0.2,0.3-0.3L191.5,146.1z"/>
		<path class="st6" d="M190,147.8c-0.1,0.1-0.1,0.2-0.3,0.4l31.4,31.4c0.2-0.1,0.3-0.2,0.4-0.3L190,147.8z"/>
		<path class="st6" d="M188.9,174c0.9,1.2,1.8,2.4,2.9,3.5s2.3,2,3.5,2.9L188.9,174z"/>
		<path class="st6" d="M226.3,149.3c-0.8-1.3-1.8-2.4-2.9-3.5c-1.1-1.1-2.2-2.1-3.5-2.9L226.3,149.3z"/>
		<path class="st6" d="M185.3,164c0.1,0.2,0.1,0.4,0.1,0.7l19.1,19.1c0.3,0,0.5,0,0.7,0.1L185.3,164z"/>
		<path class="st6" d="M185.2,162.3c0,0.2,0.1,0.4,0,0.7l21.1,21.1c0.3,0,0.5,0,0.7,0L185.2,162.3z"/>
		<path class="st6" d="M186.1,168c0.1,0.3,0.3,0.6,0.3,0.9l13.9,13.9c0.4,0,0.7,0.2,0.9,0.3L186.1,168z"/>
		<path class="st6" d="M185.8,156.4c0,0.1,0,0.3-0.1,0.5l26.6,26.6c0.2-0.1,0.4-0.1,0.5-0.1L185.8,156.4z"/>
		<path class="st6" d="M186.5,154c0,0.1-0.1,0.3-0.2,0.5l28.4,28.4c0.2-0.1,0.3-0.1,0.5-0.2L186.5,154z"/>
		<path class="st6" d="M186.1,155.2c0,0.1,0,0.3-0.1,0.5l27.6,27.6c0.2-0.1,0.4-0.1,0.5-0.1L186.1,155.2z"/>
		<path class="st6" d="M185.5,157.8c0,0.2,0,0.3-0.1,0.6l25.5,25.5c0.2-0.1,0.4-0.1,0.6-0.1L185.5,157.8z"/>
		<path class="st6" d="M189.3,148.7c-0.1,0.1-0.1,0.2-0.3,0.4l31.1,31.1c0.2-0.1,0.3-0.2,0.4-0.3L189.3,148.7z"/>
		<path class="st6" d="M188.1,150.7c-0.1,0.1-0.1,0.2-0.2,0.4l30.3,30.3c0.2-0.1,0.3-0.2,0.4-0.2L188.1,150.7z"/>
		<path class="st6" d="M188.7,149.7c-0.1,0.1-0.1,0.2-0.2,0.4l30.8,30.8c0.2-0.1,0.3-0.2,0.4-0.2L188.7,149.7z"/>
		<path class="st6" d="M187.5,151.7c0,0.1-0.1,0.2-0.2,0.4l29.8,29.8c0.2-0.1,0.3-0.2,0.4-0.2L187.5,151.7z"/>
		<path class="st6" d="M187,152.8c0,0.1-0.1,0.2-0.2,0.5l29.2,29.2c0.2-0.1,0.3-0.2,0.5-0.2L187,152.8z"/>
	</g>
	<g class="st4">
		<path class="st3" d="M128.3,110.2c-0.1,0-0.2,0.1-0.4,0.2l30.5,30.5c0.1-0.2,0.2-0.3,0.2-0.4L128.3,110.2z"/>
		<path class="st3" d="M129.3,109.6c-0.1,0-0.2,0.1-0.4,0.2l30,30c0.1-0.2,0.2-0.3,0.2-0.4L129.3,109.6z"/>
		<path class="st3" d="M132.9,108.3c-0.1,0-0.3,0-0.5,0.1l27.9,27.9c0.1-0.2,0.1-0.4,0.1-0.5L132.9,108.3z"/>
		<path class="st3" d="M130.5,109.2c-0.1,0-0.3,0.1-0.5,0.2l29.4,29.4c0.1-0.2,0.2-0.3,0.2-0.5L130.5,109.2z"/>
		<path class="st3" d="M131.6,108.7c-0.1,0-0.3,0.1-0.5,0.2l28.7,28.7c0.1-0.2,0.1-0.3,0.2-0.5L131.6,108.7z"/>
		<path class="st3" d="M134.2,108c-0.1,0-0.3,0-0.5,0.1l27,27c0.1-0.2,0.1-0.4,0.1-0.5L134.2,108z"/>
		<path class="st3" d="M137,107.6c-0.2,0-0.3,0-0.6,0.1l24.8,24.8c0.1-0.2,0.1-0.4,0.1-0.6L137,107.6z"/>
		<path class="st3" d="M138.5,107.5c-0.2,0-0.4,0-0.6,0l23.4,23.4c0.1-0.3,0-0.4,0-0.6L138.5,107.5z"/>
		<path class="st3" d="M135.5,107.8c-0.2,0-0.3,0-0.6,0.1l26,26c0.1-0.2,0.1-0.4,0.1-0.6L135.5,107.8z"/>
		<path class="st3" d="M124.4,112.8c-0.1,0.1-0.2,0.1-0.3,0.3l31.6,31.6c0.2-0.2,0.2-0.3,0.3-0.3L124.4,112.8z"/>
		<path class="st3" d="M143.9,108.1c-0.2-0.1-0.5-0.2-0.8-0.2l17.8,17.8c0-0.3-0.1-0.6-0.2-0.8L143.9,108.1z"/>
		<path class="st3" d="M161.3,129.3c0-0.3,0-0.5,0-0.7l-21.1-21.1c-0.2,0-0.4-0.1-0.7,0L161.3,129.3z"/>
		<path class="st3" d="M146.1,108.7c-0.3-0.1-0.6-0.3-0.9-0.3l15.2,15.2c0-0.4-0.2-0.7-0.3-0.9L146.1,108.7z"/>
		<path class="st3" d="M141.9,107.7c-0.2-0.1-0.4-0.1-0.7-0.1l20,20c0-0.3,0-0.5-0.1-0.7L141.9,107.7z"/>
		<path class="st3" d="M116.6,127.5c0,0.2,0,0.3-0.1,0.6l24.2,24.2c0.3-0.1,0.4-0.1,0.6-0.1L116.6,127.5z"/>
		<path class="st3" d="M126.3,111.4c-0.1,0.1-0.2,0.1-0.4,0.3l31.2,31.2c0.1-0.2,0.2-0.3,0.3-0.4L126.3,111.4z"/>
		<path class="st3" d="M148.9,109.9c-0.4-0.2-0.8-0.4-1.2-0.6l11.8,11.8c-0.1-0.5-0.3-0.8-0.6-1.2L148.9,109.9z"/>
		<path class="st3" d="M125.3,112.1c-0.1,0.1-0.2,0.1-0.4,0.3l31.5,31.5c0.1-0.2,0.2-0.3,0.3-0.4L125.3,112.1z"/>
		<path class="st3" d="M127.2,110.8c-0.1,0.1-0.2,0.1-0.4,0.2l30.9,30.9c0.1-0.2,0.2-0.3,0.2-0.4L127.2,110.8z"/>
		<path class="st3" d="M154.9,145.5c0.2-0.2,0.2-0.2,0.3-0.3l-31.7-31.7c-0.1,0.1-0.2,0.2-0.3,0.3L154.9,145.5z"/>
		<path class="st3" d="M128.8,150c0.5,0.1,0.8,0.4,1.2,0.6l-11.8-11.8c0.2,0.4,0.4,0.7,0.6,1.2L128.8,150z"/>
		<path class="st3" d="M139.2,152.3c0.3-0.1,0.4,0,0.6,0l-23.4-23.4c0,0.2,0,0.4,0,0.6L139.2,152.3z"/>
		<path class="st3" d="M116.8,134.1c0.1,0.2,0.2,0.5,0.2,0.8l16.8,16.8c0.3,0,0.6,0.1,0.8,0.2L116.8,134.1z"/>
		<path class="st3" d="M122,115.2c-0.1,0.1-0.1,0.2-0.3,0.3l31.6,31.6c0.2-0.2,0.3-0.2,0.3-0.3L122,115.2z"/>
		<path class="st3" d="M122.8,114.3c-0.1,0.1-0.2,0.2-0.3,0.3l31.7,31.7c0.2-0.2,0.2-0.2,0.3-0.3L122.8,114.3z"/>
		<path class="st3" d="M121.3,116c-0.1,0.1-0.1,0.2-0.3,0.4l31.4,31.4c0.2-0.1,0.3-0.2,0.4-0.3L121.3,116z"/>
		<path class="st3" d="M120.1,142.3c0.9,1.2,1.8,2.4,2.9,3.5s2.3,2,3.5,2.9L120.1,142.3z"/>
		<path class="st3" d="M157.6,117.6c-0.8-1.3-1.8-2.4-2.9-3.5c-1.1-1.1-2.2-2.1-3.5-2.9L157.6,117.6z"/>
		<path class="st3" d="M116.6,132.3c0.1,0.2,0.1,0.4,0.1,0.7l19.1,19.1c0.3,0,0.5,0,0.7,0.1L116.6,132.3z"/>
		<path class="st3" d="M116.5,130.5c0,0.2,0.1,0.4,0,0.7l21.1,21.1c0.3,0,0.5,0,0.7,0L116.5,130.5z"/>
		<path class="st3" d="M117.4,136.3c0.1,0.3,0.3,0.6,0.3,0.9l13.9,13.9c0.4,0,0.7,0.2,0.9,0.3L117.4,136.3z"/>
		<path class="st3" d="M117.1,124.7c0,0.1,0,0.3-0.1,0.5l26.6,26.6c0.2-0.1,0.4-0.1,0.5-0.1L117.1,124.7z"/>
		<path class="st3" d="M117.8,122.2c0,0.1-0.1,0.3-0.2,0.5l28.4,28.4c0.2-0.1,0.3-0.1,0.5-0.2L117.8,122.2z"/>
		<path class="st3" d="M117.4,123.4c0,0.1,0,0.3-0.1,0.5l27.6,27.6c0.2-0.1,0.4-0.1,0.5-0.1L117.4,123.4z"/>
		<path class="st3" d="M116.8,126c0,0.2,0,0.3-0.1,0.6l25.5,25.5c0.2-0.1,0.4-0.1,0.6-0.1L116.8,126z"/>
		<path class="st3" d="M120.6,117c-0.1,0.1-0.1,0.2-0.3,0.4l31.1,31.1c0.2-0.1,0.3-0.2,0.4-0.3L120.6,117z"/>
		<path class="st3" d="M119.3,118.9c-0.1,0.1-0.1,0.2-0.2,0.4l30.3,30.3c0.2-0.1,0.3-0.2,0.4-0.2L119.3,118.9z"/>
		<path class="st3" d="M119.9,117.9c-0.1,0.1-0.1,0.2-0.2,0.4l30.8,30.8c0.2-0.1,0.3-0.2,0.4-0.2L119.9,117.9z"/>
		<path class="st3" d="M118.8,120c0,0.1-0.1,0.2-0.2,0.4l29.8,29.8c0.2-0.1,0.3-0.2,0.4-0.2L118.8,120z"/>
		<path class="st3" d="M118.3,121.1c0,0.1-0.1,0.2-0.2,0.5l29.2,29.2c0.2-0.1,0.3-0.2,0.5-0.2L118.3,121.1z"/>
	</g>
	<g class="st4">
		<path class="st1" d="M292.7,109.4c-0.2,0.1-0.4,0.2-0.8,0.4l58.4,58.4c0.3-0.4,0.3-0.6,0.4-0.8L292.7,109.4z"/>
		<path class="st1" d="M294.8,108.3c-0.2,0.1-0.5,0.2-0.8,0.4l57.4,57.4c0.2-0.4,0.3-0.6,0.4-0.8L294.8,108.3z"/>
		<path class="st1" d="M301.5,105.9c-0.3,0-0.5,0.1-1,0.3l53.4,53.4c0.2-0.4,0.2-0.7,0.3-1L301.5,105.9z"/>
		<path class="st1" d="M296.9,107.4c-0.2,0.1-0.5,0.1-0.9,0.4l56.3,56.3c0.2-0.4,0.3-0.6,0.4-0.9L296.9,107.4z"/>
		<path class="st1" d="M299.2,106.6c-0.3,0.1-0.5,0.1-0.9,0.3l55,55c0.2-0.4,0.3-0.7,0.3-0.9L299.2,106.6z"/>
		<path class="st1" d="M304,105.3c-0.3,0-0.6,0-1,0.2l51.7,51.7c0.2-0.4,0.2-0.7,0.2-1L304,105.3z"/>
		<path class="st1" d="M309.3,104.5c-0.3,0-0.6,0-1.1,0.1l47.3,47.3c0.1-0.5,0.1-0.8,0.1-1.1L309.3,104.5z"/>
		<path class="st1" d="M312.3,104.3c-0.3,0-0.7-0.1-1.2,0l44.7,44.7c0.1-0.5,0.1-0.8,0-1.2L312.3,104.3z"/>
		<path class="st1" d="M306.6,104.8c-0.3,0-0.6,0-1.1,0.2l49.7,49.7c0.2-0.5,0.2-0.8,0.2-1.1L306.6,104.8z"/>
		<path class="st1" d="M285.4,114.4c-0.2,0.1-0.3,0.3-0.7,0.6l60.5,60.5c0.3-0.3,0.4-0.5,0.6-0.7L285.4,114.4z"/>
		<path class="st1" d="M322.6,105.4c-0.5-0.2-0.9-0.3-1.6-0.3l34,34c0-0.6-0.2-1.1-0.3-1.6L322.6,105.4z"/>
		<path class="st1" d="M355.8,146c0.1-0.5,0-0.9-0.1-1.3l-40.3-40.3c-0.4-0.1-0.8-0.1-1.3-0.1L355.8,146z"/>
		<path class="st1" d="M326.9,106.6c-0.6-0.2-1.1-0.5-1.8-0.6l29,29c-0.1-0.7-0.3-1.3-0.6-1.8L326.9,106.6z"/>
		<path class="st1" d="M318.8,104.7c-0.4-0.1-0.8-0.2-1.4-0.2l38.2,38.2c0-0.6-0.1-1-0.2-1.4L318.8,104.7z"/>
		<path class="st1" d="M270.4,142.4c0,0.3,0,0.6-0.1,1.1l46.3,46.3c0.5-0.1,0.8-0.1,1.1-0.1L270.4,142.4z"/>
		<path class="st1" d="M288.9,111.7c-0.2,0.1-0.4,0.2-0.7,0.5l59.8,59.8c0.3-0.3,0.4-0.5,0.5-0.7L288.9,111.7z"/>
		<path class="st1" d="M332.2,108.8c-0.7-0.4-1.4-0.8-2.3-1.1l22.5,22.5c-0.2-0.9-0.7-1.6-1.1-2.3L332.2,108.8z"/>
		<path class="st1" d="M287.1,113c-0.2,0.1-0.4,0.3-0.7,0.5l60.2,60.2c0.3-0.3,0.4-0.5,0.5-0.7L287.1,113z"/>
		<path class="st1" d="M290.8,110.5c-0.2,0.1-0.4,0.2-0.8,0.5l59.2,59.2c0.3-0.4,0.4-0.6,0.5-0.8L290.8,110.5z"/>
		<path class="st1" d="M343.7,177c0.3-0.3,0.5-0.5,0.6-0.6l-60.6-60.6c-0.2,0.1-0.3,0.3-0.6,0.6L343.7,177z"/>
		<path class="st1" d="M293.8,185.5c0.9,0.3,1.6,0.7,2.3,1.1l-22.5-22.5c0.4,0.7,0.8,1.4,1.1,2.3L293.8,185.5z"/>
		<path class="st1" d="M313.7,190c0.5-0.1,0.9-0.1,1.2,0l-44.7-44.7c0,0.3,0.1,0.7,0,1.2L313.7,190z"/>
		<path class="st1" d="M270.9,155.2c0.2,0.5,0.3,0.9,0.3,1.6l32.2,32.2c0.6,0,1.1,0.2,1.6,0.3L270.9,155.2z"/>
		<path class="st1" d="M280.7,118.9c-0.1,0.2-0.3,0.3-0.6,0.7l60.4,60.4c0.3-0.3,0.5-0.4,0.7-0.6L280.7,118.9z"/>
		<path class="st1" d="M282.2,117.3c-0.2,0.2-0.3,0.3-0.6,0.6l60.6,60.6c0.3-0.3,0.5-0.4,0.6-0.6L282.2,117.3z"/>
		<path class="st1" d="M279.3,120.6c-0.1,0.2-0.3,0.4-0.5,0.7l60,60c0.3-0.3,0.5-0.4,0.7-0.5L279.3,120.6z"/>
		<path class="st1" d="M277.2,170.7c1.7,2.3,3.4,4.6,5.5,6.7c2.1,2.1,4.4,3.8,6.7,5.5L277.2,170.7z"/>
		<path class="st1" d="M348.8,123.6c-1.5-2.4-3.4-4.6-5.5-6.7s-4.3-4-6.7-5.5L348.8,123.6z"/>
		<path class="st1" d="M270.3,151.6c0.1,0.4,0.2,0.8,0.2,1.4l36.6,36.6c0.6,0,1,0.1,1.4,0.2L270.3,151.6z"/>
		<path class="st1" d="M270.1,148.3c0.1,0.4,0.1,0.8,0.1,1.3l40.3,40.3c0.5-0.1,0.9,0,1.3,0.1L270.1,148.3z"/>
		<path class="st1" d="M271.8,159.3c0.2,0.5,0.5,1.1,0.6,1.8l26.6,26.6c0.7,0.1,1.3,0.3,1.8,0.6L271.8,159.3z"/>
		<path class="st1" d="M271.3,137.2c0,0.3-0.1,0.6-0.2,1l50.9,50.9c0.4-0.2,0.7-0.2,1-0.2L271.3,137.2z"/>
		<path class="st1" d="M272.7,132.4c-0.1,0.2-0.1,0.5-0.3,0.9l54.4,54.4c0.4-0.2,0.7-0.3,0.9-0.3L272.7,132.4z"/>
		<path class="st1" d="M271.9,134.7c0,0.3-0.1,0.5-0.3,1l52.8,52.8c0.4-0.2,0.7-0.2,1-0.3L271.9,134.7z"/>
		<path class="st1" d="M270.8,139.7c0,0.3,0,0.6-0.2,1.1l48.8,48.8c0.5-0.2,0.8-0.2,1.1-0.2L270.8,139.7z"/>
		<path class="st1" d="M278,122.4c-0.1,0.2-0.2,0.4-0.5,0.7l59.5,59.5c0.3-0.3,0.5-0.4,0.7-0.5L278,122.4z"/>
		<path class="st1" d="M275.6,126.1c-0.1,0.2-0.2,0.4-0.4,0.8l58,58c0.4-0.2,0.6-0.3,0.8-0.4L275.6,126.1z"/>
		<path class="st1" d="M276.8,124.2c-0.1,0.2-0.2,0.4-0.5,0.8l58.9,58.9c0.4-0.3,0.6-0.4,0.8-0.5L276.8,124.2z"/>
		<path class="st1" d="M274.6,128.1c-0.1,0.2-0.2,0.4-0.4,0.8l57,57c0.4-0.2,0.6-0.3,0.8-0.4L274.6,128.1z"/>
		<path class="st1" d="M273.6,130.2c-0.1,0.2-0.1,0.5-0.4,0.9l55.8,55.8c0.4-0.2,0.6-0.3,0.9-0.4L273.6,130.2z"/>
	</g>
	<pattern  id="SVGID_2_" xlink:href="#Unnamed_Pattern_3" patternTransform="matrix(1 0 0 1 16 -16)">
	</pattern>
	<polygon class="st7" points="84,-12.1 145.2,61.8 82.4,134.6 -8.8,59 -5.6,-12.1 	"/>
	<g class="st4">
		
			<rect x="44.4" y="18.4" transform="matrix(0.6368 -0.771 0.771 0.6368 -58.2747 72.6956)" class="st6" width="7.2" height="159.6"/>
		<g>
			
				<rect x="39.8" y="23.9" transform="matrix(0.6368 -0.771 0.771 0.6368 -64.2204 71.1769)" class="st2" width="7.2" height="159.6"/>
		</g>
		<g>
			
				<rect x="35.3" y="29.5" transform="matrix(0.6368 -0.771 0.771 0.6368 -70.1662 69.6582)" class="st1" width="7.2" height="159.6"/>
		</g>
		<g>
			
				<rect x="30.7" y="35" transform="matrix(0.6368 -0.771 0.771 0.6368 -76.1119 68.1395)" class="st3" width="7.2" height="159.6"/>
		</g>
	</g>
	<pattern  id="SVGID_3_" xlink:href="#Unnamed_Pattern_3" patternTransform="matrix(1 0 0 1 16 -16)">
	</pattern>
	<polygon class="st8" points="320,267.3 320,327.3 189.2,322.9 170.4,304.1 176.8,270.5 218.4,230.5 234,214.1 265.2,208.5 
		296.8,227.3 	"/>
	<pattern  id="SVGID_4_" xlink:href="#Unnamed_Pattern_2" patternTransform="matrix(1 0 0 1 29 -16)">
	</pattern>
	<polygon class="st9" points="218.2,0.1 168.7,55.7 218.2,114.5 324.9,2.1 	"/>
	<circle class="st10" cx="21.7" cy="222.1" r="10.6"/>
	<circle class="st11" cx="22.6" cy="41.6" r="26.5"/>
	<g class="st4">
		
			<rect x="132.6" y="31.8" transform="matrix(0.6647 -0.7471 0.7471 0.6647 39.6018 161.4976)" class="st6" width="134.3" height="9.6"/>
		<g>
			
				<rect x="125.4" y="25.4" transform="matrix(0.6647 -0.7471 0.7471 0.6647 41.9647 154)" class="st2" width="134.3" height="9.6"/>
		</g>
		<g>
			
				<rect x="118.3" y="19.1" transform="matrix(0.6647 -0.7471 0.7471 0.6647 44.3275 146.5023)" class="st1" width="134.3" height="9.6"/>
		</g>
		<g>
			
				<rect x="111.1" y="12.7" transform="matrix(0.6647 -0.7471 0.7471 0.6647 46.6903 139.0047)" class="st3" width="134.3" height="9.6"/>
		</g>
	</g>
	<g class="st4">
		<path class="st6" d="M216.2,531.8l-87-173.4l-43.5-86.7L64,228.3l-10.9-21.7l-1.9-3.8c-0.4-0.9-0.6-1.9-0.6-2.9
			c0-0.5,0.1-1,0.1-1.5c0.1-0.5,0.2-1,0.4-1.5c0.2-0.5,0.4-0.9,0.7-1.3c0.3-0.4,0.6-0.8,1-1.2l97.8-109.9l7.2,6.4L60.6,200.2
			l164.1,327.3L216.2,531.8z"/>
		<g>
			<path class="st2" d="M207.6,536.1l-87-173.4l-43.5-86.7l-21.7-43.4l-10.9-21.7c-0.9-1.8-1.8-3.6-2.7-5.4
				c-0.9-1.8-1.2-3.9-1.2-5.9c0-1,0.1-2,0.3-3c0.2-1,0.5-2,0.9-2.9c0.4-0.9,0.8-1.8,1.4-2.7c0.6-0.8,1.3-1.6,1.9-2.3l98.4-110.6
				l7.2,6.4L52.9,194.4c-0.3,0.4-0.7,0.7-1,1.2c-0.3,0.4-0.5,0.9-0.7,1.3c-0.2,0.5-0.3,1-0.4,1.5c-0.1,0.5-0.1,1-0.1,1.5
				c0,1,0.2,2,0.6,2.9l1.9,3.8L64,228.3l21.7,43.4l43.5,86.7l87,173.4L207.6,536.1z"/>
		</g>
		<g>
			<path class="st1" d="M199,540.4l-87-173.4l-43.5-86.7l-21.7-43.4L36,215.2l-1.5-3c-0.3-0.7-0.7-1.4-1-2c-0.3-0.7-0.7-1.4-0.9-2.1
				c-1.1-2.8-1.5-5.8-1.5-8.8c0.1-6,2.2-12,6.4-16.4l98.9-111.2l7.2,6.4L45.2,188.7c-0.7,0.8-1.4,1.5-1.9,2.3
				c-0.6,0.8-1,1.7-1.4,2.7c-0.4,0.9-0.6,1.9-0.9,2.9c-0.2,1-0.3,2-0.3,3c0,2,0.3,4.1,1.2,5.9c0.9,1.8,1.8,3.6,2.7,5.4l10.9,21.7
				l21.7,43.4l43.5,86.7l87,173.4L199,540.4z"/>
		</g>
		<g>
			<path class="st3" d="M190.4,544.7l-87-173.4L60,284.6l-21.7-43.4l-10.9-21.7l-1.6-3.3c-0.4-0.9-0.9-1.8-1.3-2.7
				c-0.4-0.9-0.8-1.8-1.1-2.8C22,207,21.4,203,21.5,199c0-2,0.2-4,0.6-5.9c0.4-1.9,0.9-3.9,1.6-5.7c0.7-1.9,1.5-3.7,2.5-5.4
				c0.2-0.4,0.5-0.9,0.8-1.3c0.3-0.4,0.5-0.8,0.8-1.2c0.6-0.8,1.3-1.6,1.9-2.3l99.5-111.8l7.2,6.4L37.4,182.9
				c-4.1,4.4-6.3,10.4-6.4,16.4c0,3,0.4,6,1.5,8.8c0.3,0.7,0.6,1.4,0.9,2.1c0.3,0.7,0.7,1.4,1,2l1.5,3l10.9,21.7l21.7,43.4
				l43.5,86.7l87,173.4L190.4,544.7z"/>
		</g>
	</g>
	<g class="st4">
		
			<rect x="260.1" y="-120.6" transform="matrix(0.7679 -0.6405 0.6405 0.7679 -48.5814 208.6723)" class="st6" width="7.2" height="583.9"/>
		<g>
			
				<rect x="254.6" y="-116" transform="matrix(0.7679 -0.6405 0.6405 0.7679 -52.8184 206.201)" class="st2" width="7.2" height="583.9"/>
		</g>
		<g>
			
				<rect x="249" y="-111.3" transform="matrix(0.7679 -0.6405 0.6405 0.7679 -57.0554 203.7297)" class="st1" width="7.2" height="583.9"/>
		</g>
		<g>
			
				<rect x="243.5" y="-106.7" transform="matrix(0.7679 -0.6405 0.6405 0.7679 -61.2925 201.2583)" class="st3" width="7.2" height="583.9"/>
		</g>
	</g>
	<circle class="st5" cx="266.2" cy="179.5" r="15.4"/>
	<circle class="st11" cx="278.8" cy="100" r="15.2"/>
	<g class="st4">
		<path class="st6" d="M460.8-108.5L295.4,39.9L212.7,114l-41.4,37.1l-20.7,18.5l-5.2,4.6l-1.6,1.5c-0.4,0.4-0.9,0.7-1.4,0.9
			c-1.1,0.5-2.3,0.6-3.4,0.4c-0.6-0.1-1.1-0.3-1.6-0.6c-0.5-0.3-1-0.6-1.4-1l-28.7-23.7l4.6-5.6l28.2,23.3l316-283.3L460.8-108.5z"
			/>
		<g>
			<path class="st2" d="M465.6-103.1L300.2,45.2l-82.7,74.2l-41.4,37.1L155.4,175l-5.2,4.6l-2.6,2.3c-0.9,0.8-1.8,1.4-2.9,1.9
				c-2.1,0.9-4.5,1.2-6.8,0.8c-1.1-0.2-2.3-0.6-3.3-1.1c-1-0.5-1.9-1.3-2.8-2l-29.2-24.1l4.6-5.6l28.7,23.7c0.4,0.4,0.9,0.7,1.4,1
				c0.5,0.3,1.1,0.5,1.6,0.6c1.1,0.2,2.3,0.1,3.4-0.4c0.5-0.2,1-0.6,1.4-0.9l1.6-1.5l5.2-4.6l20.7-18.5l41.4-37.1l82.7-74.2
				l165.4-148.3L465.6-103.1z"/>
		</g>
		<g>
			<path class="st1" d="M470.4-97.7L305,50.6l-82.7,74.2l-41.4,37.1l-20.7,18.5l-5.2,4.6l-1.6,1.4c-0.6,0.6-1.3,1.1-2,1.7
				c-1.4,1-2.8,1.9-4.4,2.5c-3.2,1.3-6.7,1.6-10,1.1c-1.7-0.3-3.3-0.8-4.9-1.5c-0.8-0.4-1.5-0.8-2.2-1.3c-0.4-0.2-0.7-0.5-1-0.7
				l-1-0.8l-29.8-24.6l4.6-5.6l29.2,24.1c0.9,0.7,1.8,1.5,2.8,2c1,0.5,2.1,0.9,3.3,1.1c2.3,0.4,4.7,0.2,6.8-0.8
				c1.1-0.5,2-1.1,2.9-1.9l2.6-2.3l5.2-4.6l20.7-18.5l41.4-37.1l82.7-74.2l165.4-148.3L470.4-97.7z"/>
		</g>
		<g>
			<path class="st3" d="M475.2-92.4L309.8,55.9l-82.7,74.2l-41.4,37.1l-20.7,18.5l-5.2,4.6l-1.9,1.7c-0.8,0.8-1.8,1.5-2.6,2.2
				c-0.9,0.6-1.9,1.3-2.9,1.8l-0.7,0.4l-0.8,0.4c-0.5,0.2-1,0.5-1.6,0.7c-8.4,3.2-18.4,1.8-25.5-4l-30.3-25l4.6-5.6l29.8,24.6l1,0.8
				c0.3,0.3,0.7,0.5,1,0.7c0.7,0.5,1.5,0.9,2.2,1.3c1.5,0.7,3.2,1.2,4.9,1.5c3.4,0.5,6.9,0.2,10-1.1c1.6-0.6,3.1-1.5,4.4-2.5
				c0.7-0.6,1.3-1.1,2-1.7l1.6-1.4l5.2-4.6l20.7-18.5l41.4-37.1L305,50.6L470.4-97.7L475.2-92.4z"/>
		</g>
	</g>
	<g class="st4">
		
			<rect x="154.1" y="82.4" transform="matrix(0.6647 -0.7471 0.7471 0.6647 -13.3123 144.8224)" class="st6" width="1.2" height="9.6"/>
		<g>
			
				<rect x="146.9" y="76.1" transform="matrix(0.6647 -0.7471 0.7471 0.6647 -10.9495 137.3247)" class="st2" width="1.2" height="9.6"/>
		</g>
		<g>
			
				<rect x="139.7" y="69.7" transform="matrix(0.6647 -0.7471 0.7471 0.6647 -8.5866 129.8271)" class="st1" width="1.2" height="9.6"/>
		</g>
		<g>
			
				<rect x="132.6" y="63.3" transform="matrix(0.6647 -0.7471 0.7471 0.6647 -6.2238 122.3294)" class="st3" width="1.2" height="9.6"/>
		</g>
	</g>
	<g class="st4">
		<path class="st6" d="M172.9,270l44.3-44.3l12.6-12.5c0.5-0.5,1.2-1,2.1-1.6c0.9-0.5,1.8-1.1,2.8-1.5c2-0.9,4.2-1.6,5.5-1.7
			l225.5-20.6l0.9,9.6L241,218c0,0,0,0,0,0c0,0,0,0,0,0c-0.1,0-0.1,0-0.2,0.1c-0.1,0-0.2,0.1-0.3,0.1c-0.5,0.1-1.1,0.4-1.8,0.7
			c-0.6,0.3-1.2,0.6-1.7,0.9l-0.2,0.1l-0.1,0.1l-0.1,0.1c0,0-0.1,0-0.1,0.1c0,0-0.1,0-0.1,0.1c0,0,0,0,0,0c0,0,0,0,0,0L224,232.6
			l-44.3,44.3L172.9,270z"/>
		<g>
			<path class="st2" d="M181.7,247.6l28.7-28.7l12.7-12.7c1.1-1,2.3-1.9,3.6-2.7c1.3-0.8,2.6-1.5,4-2.1c1.4-0.6,2.8-1.2,4.2-1.6
				c1.4-0.4,2.9-0.8,4.4-0.9l225.6-20.6l0.9,9.6l-225.5,20.6c-1.3,0.1-3.5,0.8-5.5,1.7c-1,0.5-2,1-2.8,1.5c-0.9,0.6-1.6,1.1-2.1,1.6
				l-12.6,12.5l-28.7,28.7L181.7,247.6z"/>
		</g>
		<g>
			<path class="st1" d="M150.1,265.7l53.5-53.5l6.4-6.4l3.2-3.2l1.6-1.6l0.8-0.8l0.4-0.4l0.1-0.1l0.2-0.1l0.3-0.3
				c0.4-0.4,0.8-0.8,1.3-1.1l0.6-0.5l0.6-0.5l0.6-0.5l0.6-0.4l0.6-0.4l0.6-0.4c1.7-1.1,3.3-2,5.1-2.8c1.7-0.8,3.5-1.5,5.4-2.1
				c0.5-0.1,1-0.3,1.5-0.4c0.5-0.1,1-0.2,1.5-0.4c0.5-0.1,1.1-0.2,1.6-0.3c0.6-0.1,1.1-0.1,1.7-0.2l225.6-20.6l0.9,9.6l-225.6,20.6
				c-1.5,0.1-3,0.5-4.4,0.9c-1.4,0.4-2.8,1-4.2,1.6c-1.4,0.6-2.7,1.3-4,2.1c-1.3,0.8-2.5,1.7-3.6,2.7L210.4,219l-53.5,53.5
				L150.1,265.7z"/>
		</g>
		<g>
			<path class="st3" d="M185.1,217.1l11.7-11.7l6.4-6.4l3.2-3.2l1.6-1.6l0.8-0.8l0.4-0.4l0.2-0.2l0.2-0.2l0.4-0.4
				c0.5-0.5,1.1-1,1.7-1.5l0.8-0.7l0.8-0.6l0.8-0.6l0.8-0.5l0.8-0.5l0.8-0.5c2.1-1.3,4.1-2.4,6.2-3.4c2.1-1,4.2-1.8,6.6-2.5
				c0.6-0.2,1.2-0.4,1.8-0.5c0.6-0.2,1.3-0.3,2-0.5c0.7-0.1,1.4-0.3,2.2-0.4c0.7-0.1,1.5-0.2,2.2-0.3l225.6-20.6l0.9,9.6
				l-225.6,20.6c-0.6,0.1-1.1,0.1-1.7,0.2c-0.6,0.1-1.1,0.2-1.6,0.3c-0.5,0.1-1,0.2-1.5,0.4c-0.5,0.1-1,0.3-1.5,0.4
				c-1.9,0.6-3.7,1.3-5.4,2.1c-1.7,0.8-3.4,1.7-5.1,2.8l-0.6,0.4l-0.6,0.4l-0.6,0.4l-0.6,0.5l-0.6,0.5l-0.6,0.5
				c-0.4,0.4-0.9,0.7-1.3,1.1l-0.3,0.3l-0.2,0.1l-0.1,0.1l-0.4,0.4l-0.8,0.8l-1.6,1.6l-3.2,3.2l-6.4,6.4l-11.7,11.7L185.1,217.1z"/>
		</g>
	</g>
	<path class="st12" d="M177.2,272.6c-11,11-11,28.9,0,39.9l24.5,22.1"/>
	<path class="st13" d="M154.1,268.4c-11,11-11,28.9,0,39.9l41.7,41.7"/>
	<path class="st14" d="M186,250.2c-11,11-28.9,11-39.9,0l-27-27"/>
	<path class="st15" d="M188.7,220.1c-11,11-28.9,11-39.9,0"/>
	<circle class="st11" cx="111.1" cy="216.6" r="4.3"/>
	<circle class="st11" cx="267.8" cy="116.2" r="15.2"/>
	<circle class="st11" cx="37" cy="18.1" r="21.7"/>
	<circle class="st11" cx="40.7" cy="51.6" r="14.9"/>
	<circle class="st11" cx="113.1" cy="291.4" r="11.6"/>
	<circle class="st11" cx="119.4" cy="281.1" r="9.5"/>
	<circle class="st11" cx="121.1" cy="295.7" r="6.5"/>
	<circle class="st11" cx="286.4" cy="117.9" r="9.1"/>
	<circle class="st11" cx="102.8" cy="210.3" r="2.4"/>
	<circle class="st5" cx="283.3" cy="168.7" r="15.4"/>
	<circle class="st5" cx="296.6" cy="165.2" r="15.4"/>
	<circle class="st10" cx="16.6" cy="202.1" r="12.5"/>
	<circle class="st5" cx="23.2" cy="283.9" r="12.5"/>
	<circle class="st5" cx="5.8" cy="292.1" r="12.5"/>
	<circle class="st5" cx="12" cy="268.2" r="17.5"/>
	<circle class="st16" cx="278.3" cy="306.8" r="21"/>
	<circle class="st16" cx="248.9" cy="324.2" r="21"/>
	<circle class="st16" cx="259.4" cy="280.4" r="29.5"/>
	<circle class="st16" cx="246.4" cy="50.1" r="10.6"/>
	<circle class="st16" cx="231.6" cy="58.8" r="10.6"/>
	<circle class="st16" cx="236.9" cy="36.8" r="14.8"/>
	<g class="st4">
		<circle class="st1" cx="287.3" cy="5.2" r="13.7"/>
		<pattern  id="SVGID_5_" xlink:href="#Unnamed_Pattern" patternTransform="matrix(2.7149 0 0 2.7149 13695.666 13066.1143)">
		</pattern>
		<circle class="st17" cx="287.3" cy="5.2" r="13.7"/>
	</g>
	<g class="st4">
		<circle class="st1" cx="276.3" cy="5.2" r="8"/>
		<pattern  id="SVGID_6_" xlink:href="#Unnamed_Pattern" patternTransform="matrix(1.5797 0 0 1.5797 4659.7349 4368.0576)">
		</pattern>
		<circle class="st18" cx="276.3" cy="5.2" r="8"/>
	</g>
	<circle class="st10" cx="10.8" cy="218.9" r="6.7"/>
	<circle class="st10" cx="146.3" cy="171.3" r="9.4"/>
	<circle class="st10" cx="153.9" cy="181.6" r="10.4"/>
	<circle class="st10" cx="161.6" cy="180.9" r="14.1"/>
	<circle class="st5" cx="171.8" cy="7.6" r="16.2"/>
	<circle class="st5" cx="320" cy="88.9" r="11.7"/>
	<circle class="st5" cx="325.4" cy="106.8" r="12.9"/>
</g>
</svg>
