<?xml version="1.0" encoding="utf-8"?>
<!-- Generator: Adobe Illustrator 22.0.0, SVG Export Plug-In . SVG Version: 6.00 Build 0)  -->
<svg version="1.1" id="Layer_1" xmlns="http://www.w3.org/2000/svg" xmlns:xlink="http://www.w3.org/1999/xlink" x="0px" y="0px"
	 viewBox="0 0 110 60" style="enable-background:new 0 0 110 60;" xml:space="preserve">
<style type="text/css">
	.st0{fill:#2C3136;}
</style>
<g>
	<g>
		<polygon class="st0" points="103,12 110,12 110,0 97,0 97,6 103,6 		"/>
		<polygon class="st0" points="103,47 103,53 97,53 97,60 110,60 110,47 		"/>
		<polygon class="st0" points="7,12 7,6 13,6 13,0 0,0 0,12 		"/>
		<polygon class="st0" points="7,47 0,47 0,60 13,60 13,54 7,54 		"/>
	</g>
	<g>
		<path class="st0" d="M48,24.3c0,0.3-0.2,0.7-0.5,0.9c-0.3,0.3-0.6,0.4-0.9,0.4c-0.4,0-0.8-0.4-1-1.1c-0.1-0.5-0.3-1-0.6-1.2
			c-0.1-0.2-0.5-0.5-1.2-1.1c-0.8-0.7-1.8-1.3-2.9-1.8s-2.1-0.7-2.9-0.7c-0.6,0-1,0.4-1,1.1c0.1,1.7,0.3,4.2,0.4,7.5
			c0,1-0.1,2.7-0.3,4.9C37,34.9,36.9,36,37,36.4c0.1,0.7,0.8,1.1,2.3,1.2c0.5,0,1.6,0.2,3.2,0.5c0.9,0.2,1.3,0.6,1.3,1.3
			c0,0.5-0.5,0.7-1.5,0.7c-0.1,0-0.7,0-1.8-0.1c-1.1-0.1-1.7-0.1-1.8-0.1c-0.2,0-1.3-0.1-3.3-0.2c-1.8-0.1-2.9-0.2-3.3-0.1
			c-1.7,0-4.3,0.2-7.8,0.4c-3.1,0.2-4.9,0.3-5.2,0.3c-0.6,0-0.9-0.3-0.9-0.9c0-0.5,0.5-0.8,1.4-1c0.8-0.1,2-0.2,3.5-0.4
			c1-0.2,1.5-0.5,1.5-1.1c0-0.7-0.1-1.9-0.2-3.7c-0.1-1.9-0.2-3.2-0.2-3.8c0-1.4,0.1-2.8,0.2-4.3c0.1-1.7,0.2-2.8,0.3-3.4
			c0-1.2-0.3-1.9-1-1.9c-1.4,0-3,0.4-4.8,1.2c-1,0.5-1.8,1-2.4,1.7c-0.3,0.4-0.6,1.1-0.8,1.9c-0.1,0.6-0.5,1-1.1,1
			c-0.8,0-1.2-0.8-1.1-2.2l0.1-3.1c0-1.4,0.3-2.2,0.8-2.6s1.7-0.5,3.5-0.5c-0.2,0,1.7,0,5.6,0.1c3.4,0.1,6.5,0.1,9.5,0
			c1.8,0,4.6-0.1,8.3-0.2c3.3-0.1,5-0.1,5-0.1c0.8,0,1.3,0.4,1.4,1.1c0,0.2,0.2,1.6,0.4,4.3L48,24.3z"/>
		<path class="st0" d="M97.6,39c0,0.4-0.5,0.7-1.5,0.7c-0.9,0-2.3,0-4.2-0.1s-3.3-0.1-4.2-0.1c-0.6,0-1.2,0-1.7,0
			c-2.5,0-6.2,0.1-11.3,0.3c-0.2,0-0.4,0-0.6-0.1c-0.2-0.1-0.4-0.3-0.4-0.5c0-0.5,0.2-0.8,0.7-1c0.1,0,0.6-0.1,1.3-0.2
			c0.1,0,0.9-0.1,2.3-0.2c0.3,0,0.6-0.1,0.8-0.3c0.4-0.2,0.5-0.5,0.5-0.9c0-0.6-0.2-2.3-0.6-5.1c-0.2-1-0.3-1.6-0.4-1.6
			c-0.2,0-1.5,1.7-4.1,5c-2.5,3.3-3.9,5-4.3,5c-0.4,0-2-1.6-4.9-4.8c-2.9-3.2-4.5-4.8-4.8-4.8c-0.4,0-0.5,0.2-0.5,0.7
			c0,1.7,0.4,3.1,1.3,4.4c0.9,1.3,2.2,2.1,3.8,2.4c0.8,0.1,1.3,0.5,1.3,1c0,0.5-0.5,0.8-1.4,0.8c-0.7,0-1.6,0-2.9-0.1
			c-1.3-0.1-2.3-0.1-2.9-0.1c-0.6,0-1.6,0.1-2.9,0.2c-1.3,0.2-2.2,0.2-2.8,0.2c-0.9,0-1.3-0.3-1.3-0.8c0-0.4,0.4-0.8,1.3-1
			c0.8-0.1,1.7-0.4,2.8-0.7c0.5-0.3,1-2.2,1.3-5.7c0.2-2.4,0.3-4.5,0.3-6.5c0-4.2-0.9-6.3-2.7-6.3c-0.3,0-0.6,0-1.1-0.1
			c-0.5,0-0.8-0.1-1.1-0.1c-0.2,0-0.5-0.1-0.7-0.3c-0.3-0.2-0.4-0.4-0.4-0.6c0-0.7,0.5-1.1,1.5-1.2c0.8,0,1.8,0,3.1,0
			c1.6,0.1,2.7,0.1,3.2,0.1c0.4,0,1.1,0,2,0c0.9,0,1.5,0,2,0c0.3,0,0.5,0,0.7,0c0.9,0.1,2.3,1.1,4.2,3.2c1.2,1.3,2.8,3.3,4.7,5.8
			c1.6,2.1,2.4,3.1,2.4,3.1c0.2,0,0.8-0.6,1.8-1.8c0.5-0.8,1.1-1.5,1.6-2.2c0.1-0.2,1.7-2.2,4.7-6c1-1.3,1.9-1.9,2.9-1.9
			c0.4,0,1.1,0,1.9,0c0.9,0,1.5,0,1.9,0c0.7,0,1.7,0,3-0.1s2.3-0.1,3-0.1c0.2,0,0.4,0.1,0.7,0.2c0.3,0.2,0.4,0.3,0.4,0.5
			c0,0.7-0.3,1.1-1,1.2c-1,0-2,0.1-3,0.1c-1.2,0.1-1.8,0.6-1.7,1.5c0.4,6.1,0.6,9.4,0.6,10c0,0.6,0,1.6-0.1,3
			c-0.1,1.2-0.1,2.2-0.1,3c0,0.6,0.6,1,1.7,1.3c0.1,0,1.1,0.2,3,0.5c0.4,0.1,0.7,0.1,0.8,0.2C97.5,38.4,97.6,38.7,97.6,39z"/>
	</g>
</g>
<g>
</g>
<g>
</g>
<g>
</g>
<g>
</g>
<g>
</g>
<g>
</g>
<g>
</g>
<g>
</g>
<g>
</g>
<g>
</g>
<g>
</g>
<g>
</g>
<g>
</g>
<g>
</g>
<g>
</g>
</svg>
