<?xml version="1.0" encoding="utf-8"?>
<!-- Generator: Adobe Illustrator 22.1.0, SVG Export Plug-In . SVG Version: 6.00 Build 0)  -->
<svg version="1.1" id="Layer_1" xmlns="http://www.w3.org/2000/svg" xmlns:xlink="http://www.w3.org/1999/xlink" x="0px" y="0px"
	 viewBox="0 0 1280 656" style="enable-background:new 0 0 1280 656;" xml:space="preserve">
<style type="text/css">
	.st0{opacity:0.26;}
	.st1{fill:#FFFFFF;}
</style>
<g class="st0">
	<polygon class="st1" points="140,185 128,185 128,197 116,197 116,209 128,209 128,221 140,221 140,209 152,209 152,197 140,197 	
		"/>
	<path class="st1" d="M437.1,266.8l-2.5-5.5c-2.6,1.2-4.5,3.2-5.4,5.8c-0.9,2.5-0.7,5.2,0.5,7.5c2.9,5.7,10.2,8.1,16.2,5.4
		c3.6-1.6,6.2-4.5,7.5-8.1c1.2-3.5,0.9-7.2-0.7-10.4c-4.2-8.1-14.5-11.6-23.1-7.6c-5.2,2.4-9,6.5-10.8,11.7c-1.7,5-1.3,10.3,1.1,15
		c4.4,8.6,13.5,13.6,22.9,13.6c3.7,0,7.4-0.8,10.9-2.4l-2.5-5.5c-9.7,4.4-21.3,0.6-26-8.5c-1.7-3.2-1.9-6.9-0.7-10.3
		c1.3-3.6,4-6.5,7.6-8.2c5.7-2.6,12.5-0.4,15.2,4.9c0.9,1.8,1.1,3.8,0.4,5.7c-0.7,2-2.2,3.7-4.3,4.6c-3.1,1.4-6.9,0.2-8.3-2.7
		c-0.5-0.9-0.5-1.9-0.2-2.8C435.3,268.1,436.1,267.3,437.1,266.8z"/>
	<polygon class="st1" points="1222.8,61.9 1225.2,50.9 1215.5,56.5 1207.2,48.9 1207.2,60.1 1196.5,63.5 1206.2,69.1 1203.8,80.1 
		1213.5,74.5 1221.8,82.1 1221.8,70.9 1232.5,67.5 	"/>
	<path class="st1" d="M83.6,504.5l2.5,5.5c2.6-1.2,4.5-3.2,5.4-5.8c0.9-2.5,0.7-5.2-0.5-7.5c-2.9-5.7-10.2-8.1-16.2-5.4
		c-3.6,1.6-6.2,4.5-7.5,8.1c-1.2,3.5-0.9,7.2,0.7,10.4c4.2,8.1,14.5,11.6,23.1,7.6c5.2-2.4,9-6.5,10.8-11.7c1.7-5,1.3-10.3-1.1-15
		c-4.4-8.6-13.5-13.6-22.9-13.6c-3.7,0-7.4,0.8-10.9,2.4l2.5,5.5c9.7-4.4,21.3-0.6,26,8.5c1.7,3.2,1.9,6.9,0.7,10.3
		c-1.3,3.6-4,6.5-7.6,8.2c-5.7,2.6-12.5,0.4-15.2-4.9c-0.9-1.8-1.1-3.8-0.4-5.7c0.7-2,2.2-3.7,4.3-4.6c3.1-1.4,6.9-0.2,8.3,2.7
		c0.5,0.9,0.5,1.9,0.2,2.8C85.5,503.2,84.7,504,83.6,504.5z"/>
	<polygon class="st1" points="200.8,549.9 209.8,534.4 200.8,518.8 182.8,518.8 173.8,534.4 182.8,549.9 	"/>
	<polygon class="st1" points="200.8,559.9 209.8,544.4 200.8,528.8 182.8,528.8 173.8,544.4 182.8,559.9 	"/>
	<polygon class="st1" points="200.8,569.9 209.8,554.4 200.8,538.8 182.8,538.8 173.8,554.4 182.8,569.9 	"/>
	<polygon class="st1" points="85.4,316.9 85,352.9 116.4,335.2 	"/>
	<polygon class="st1" points="260,102.9 259.6,138.9 291,121.2 	"/>
	<polygon class="st1" points="416,600.5 413.5,611.5 423.3,605.9 431.5,613.4 431.6,602.2 442.3,598.8 432.5,593.2 435,582.3 
		425.2,587.9 417,580.3 417,591.5 406.3,594.9 	"/>
	<polygon class="st1" points="58,59.5 55.5,70.5 65.3,64.9 73.5,72.4 73.6,61.2 84.3,57.8 74.5,52.2 77,41.3 67.2,46.9 59,39.3 
		59,50.5 48.3,53.9 	"/>
	<polygon class="st1" points="381,139 393,139 393,127 405,127 405,115 393,115 393,103 381,103 381,115 369,115 369,127 381,127 	
		"/>
	<path class="st1" d="M1193.9,564.4l2.5,5.5c2.6-1.2,4.5-3.2,5.4-5.8c0.9-2.5,0.7-5.2-0.5-7.5c-2.9-5.7-10.2-8.1-16.2-5.4
		c-3.6,1.6-6.2,4.5-7.5,8.1c-1.2,3.5-0.9,7.2,0.7,10.4c4.2,8.1,14.5,11.6,23.1,7.6c5.2-2.4,9-6.5,10.8-11.7c1.7-5,1.3-10.3-1.1-15
		c-4.4-8.6-13.5-13.6-22.9-13.6c-3.7,0-7.4,0.8-10.9,2.4l2.5,5.5c9.7-4.4,21.3-0.6,26,8.5c1.7,3.2,1.9,6.9,0.7,10.3
		c-1.3,3.6-4,6.5-7.6,8.2c-5.7,2.6-12.5,0.4-15.2-4.9c-0.9-1.8-1.1-3.8-0.4-5.7c0.7-2,2.2-3.7,4.3-4.6c3.1-1.4,6.9-0.2,8.3,2.7
		c0.5,0.9,0.5,1.9,0.2,2.8C1195.7,563.1,1195,563.9,1193.9,564.4z"/>
	<path class="st1" d="M735.9,601.4l2.5,5.5c2.6-1.2,4.5-3.2,5.4-5.8c0.9-2.5,0.7-5.2-0.5-7.5c-2.9-5.7-10.2-8.1-16.2-5.4
		c-3.6,1.6-6.2,4.5-7.5,8.1c-1.2,3.5-0.9,7.2,0.7,10.4c4.2,8.1,14.5,11.6,23.1,7.6c5.2-2.4,9-6.5,10.8-11.7c1.7-5,1.3-10.3-1.1-15
		c-4.4-8.6-13.5-13.6-22.9-13.6c-3.7,0-7.4,0.8-10.9,2.4l2.5,5.5c9.7-4.4,21.3-0.6,26,8.5c1.7,3.2,1.9,6.9,0.7,10.3
		c-1.3,3.6-4,6.5-7.6,8.2c-5.7,2.6-12.5,0.4-15.2-4.9c-0.9-1.8-1.1-3.8-0.4-5.7c0.7-2,2.2-3.7,4.3-4.6c3.1-1.4,6.9-0.2,8.3,2.7
		c0.5,0.9,0.5,1.9,0.2,2.8C737.7,600.1,737,600.9,735.9,601.4z"/>
	<polygon class="st1" points="1052.2,208.4 1049.8,219.3 1059.5,213.7 1067.8,221.3 1067.8,210.1 1078.5,206.7 1068.8,201.1 
		1071.2,190.1 1061.5,195.7 1053.2,188.2 1053.2,199.4 1042.5,202.8 	"/>
	<path class="st1" d="M892.4,85.7l-2.5-5.5c-2.6,1.2-4.5,3.2-5.4,5.8c-0.9,2.5-0.7,5.2,0.5,7.5c2.9,5.7,10.2,8.1,16.2,5.4
		c3.6-1.6,6.2-4.5,7.5-8.1c1.2-3.5,0.9-7.2-0.7-10.4c-4.2-8.1-14.5-11.6-23.1-7.6c-5.2,2.4-9,6.5-10.8,11.7c-1.7,5-1.3,10.3,1.1,15
		c4.4,8.6,13.5,13.6,22.9,13.6c3.7,0,7.4-0.8,10.9-2.4l-2.5-5.5c-9.7,4.4-21.3,0.6-26-8.5c-1.7-3.2-1.9-6.9-0.7-10.3
		c1.3-3.6,4-6.5,7.6-8.2c5.7-2.6,12.5-0.4,15.2,4.9c0.9,1.8,1.1,3.8,0.4,5.7c-0.7,2-2.2,3.7-4.3,4.6c-3.1,1.4-6.9,0.2-8.3-2.7
		c-0.5-0.9-0.5-1.9-0.2-2.8C890.5,87,891.3,86.2,892.4,85.7z"/>
	<polygon class="st1" points="609.3,40.3 600.3,55.9 609.3,71.5 627.3,71.5 636.3,55.9 627.3,40.3 	"/>
	<polygon class="st1" points="1166.6,273.4 1167,237.4 1135.6,255 	"/>
	<polygon class="st1" points="1203,401.7 1205.5,390.8 1195.7,396.4 1187.5,388.8 1187.5,400 1176.8,403.4 1186.5,409 1184,420 
		1193.8,414.4 1202,421.9 1202.1,410.7 1212.8,407.3 	"/>
</g>
</svg>
