<?xml version="1.0" encoding="utf-8"?>
<!-- Generator: Adobe Illustrator 22.1.0, SVG Export Plug-In . SVG Version: 6.00 Build 0)  -->
<svg version="1.1" id="Layer_1" xmlns="http://www.w3.org/2000/svg" xmlns:xlink="http://www.w3.org/1999/xlink" x="0px" y="0px"
	 viewBox="0 0 1280 669" style="enable-background:new 0 0 1280 669;" xml:space="preserve">
<style type="text/css">
	.st0{opacity:0.26;fill:#F9F9F9;}
	.st1{opacity:0.26;}
	.st2{fill:#F9F9F9;}
</style>
<path class="st0" d="M563,623.6c48.2-13.9,37.5-43.2,97.5-48.7c95.5-8.8,27.7,43.4,152.2,24.5c34.5-5.2,62.1-14.9,86.3-25.2
	c0.4-0.5,1.1-0.8,1.8-0.8c3.2-1.4,6.3-2.7,9.4-4.1c0.4-3.4,1.1-6.8,1.6-10.3c0.5-3.2,0.5-5.9,2-8.9c0.8-1.7,2.2-3.4,2.5-5.3
	c0.5-2.6-0.9-5.2-1.6-7.6c-1.1-3.8-1.7-7.9-1.7-11.8c-0.1-4.5,1.6-9.4,0-13.8c-1-2.7-2.8-5.2-1.6-8.2c0.7-1.8,2.3-2.9,2.7-4.8
	c0.6-2.4,0.2-5.1,0.3-7.5c0.2-9.7,0.3-19.4,0.5-29.1c0.1-4.6,0.2-9.3,0.2-13.9c0-4.4-1.3-8.2-2-12.4c-0.6-3.9,0.4-7.6,0.6-11.5
	c0.2-4.1-2.3-8.1-1.2-12.2c0.6-2.2,2.2-3.9,1.8-6.3c-0.3-1.6-1.3-3.1-1.9-4.6c-0.6-1.5-1.1-3-1-4.6c0.1-1.8,1.1-2.6,1.6-4.3
	c0.7-2.4-0.7-4.4-1.1-6.7c-0.3-1.7,0-3.2,0.6-4.8c1.6-4.8,2.6-9.1,2.3-14.2c-0.7-0.8-1.6-1.3-2.5-1.5c-0.4,1.1-1.3,2.1-2.5,2.7
	c-1,0.5-1.9,0.3-2.9,0.5c-2.2,0.5-2.1,2.3-2.4,4.6c-0.1,1.1-0.8,1.8-2,2c-0.2,0.6-0.3,1.3-0.5,1.9c0.9,1,0.6,3.1-0.9,3.3
	c-2.4,0.4-9,1.4-6.9,5.4c0.5,1,0.2,2.1-0.7,2.7c-1.3,0.8-2.5,1.1-4.1,1c-0.8-0.1-1.5-0.3-2.3-0.5c-0.4-0.1-0.8-0.3-1.2-0.4
	c-1-0.6-2-0.5-2.9,0.2c1.4,1.5,0,3.7-1.9,3.3c-2.7,0.2-3.6,1.3-2.7,3.3c0.4,1-0.4,2.1-1.4,2.4c-2.3,0.8-1.3,3.8-2.3,5.4
	c-0.6,0.9-1.3,1.3-2.3,1.6c-2.1,0.6-3.8,0.6-5.8,1.9c-1.9,1.3-3.5,3-5,4.7c-1.1,1.2-3.6,0.3-3.4-1.4c0.4-2.7,0-5.5,0.5-8.3
	c0.6-3.9,2.1-7.6,4.1-11c2-3.3,4.8-6,7.2-9c2.4-3,3.7-6.6,6.1-9.6c4.5-5.6,12.6-8.6,19-11.2c6.6-2.7,13.5-4.8,20.4-6.3
	c-2.8-0.2-6.2-0.4-6.2-0.6c0.4,1.1-0.7,2.6-1.9,2.5c-2.3-0.2-4.6-0.4-6.9-0.4c-1.8,0-6.2-0.6-7.8,0.3c-1.3,0.8-1.4,2.8-2.4,3.9
	c-1,1-2.3,1.3-3.8,1.1c-2-0.3-3.6-1.4-5.7-0.7c-2.7,0.9-2.3,3.2-4.1,4.7c-2.9,2.4-7.6-3.4-8.9,2c-0.2,0.8-1.1,1.5-1.9,1.4
	c-1.5-0.1-4.9-1.5-6.2-0.8c-1.2,0.7-0.9,2.8-1.8,3.8c-0.7,0.8-1.8,1.2-2.8,1.2c-1.4,0.1-4.3-1.5-5.4-0.5c-0.6,0.6-0.5,2.9-0.8,3.7
	c-0.3,0.9-0.8,1.7-1.7,2.2c-1.2,0.8-2.4,0.4-3.7,0.4c-2.9,0-5.3,1.6-6.3,4.4c-0.3,0.8-1,1.5-1.9,1.4c-4.4-0.3-5.7,4-6.8,7.3
	c-0.4,1.2-1.7,1.8-2.9,1.2c-3.9-2.1-7.8,1.2-6.7,5.3c0.4,1.4-1,2.9-2.4,2.4c-1.9-0.7-3.8-0.5-5.2,0.5c-0.1,0.8-0.2,1.7-0.5,2.4
	c-0.4,1-1.4,1.9-2,2.7c-1.1,1.3-3.5,0.3-3.4-1.4c0.2-1.9,0.8-3.6,1.8-5c0-0.3,0.1-0.5,0.1-0.9c0.4-2.8,1.1-5.6,2.2-8.3
	c2-5.4,5.1-10.3,8.6-14.8c7.2-9.3,16-18.3,25.7-25.1c4.6-3.2,9.8-5.9,15.3-7.2c6.5-1.6,13.1-1.3,19.7-1.3c6.8,0,13.5-1.3,20.4-1.2
	c5.2,0,10.3,0.7,15.4,2c-0.6-2.6-1.8-5.2-4.8-3.4c-1,0.6-1.4,1.7-2.8,1.6c-2.9-0.1-8.3-9.1-10.8-4.6c-0.4,0.8-1.4,1.1-2.2,0.9
	c-2.2-0.5-2.8-2-4.6-2.9c-3-1.4-2.4,2-3.5,3.6c-0.8,1-1.6,1.5-2.8,1.4c-1.8-0.1-6.9-4.2-7.8-1.1c-0.2,0.7-1.1,1.5-1.9,1.4
	c-1.6-0.2-3-0.6-4.5-1.4c-0.8-0.4-1.5-0.9-2.4-1.3c-2.3-0.9-2.6-0.1-4.7,0.3c-1.8,0.3-3.7-0.4-5.5,0.1c-2.7,0.8-4.6,3.5-6.3,5.5
	c-0.7,0.8-2.1,0.7-2.8,0c-1.6-1.6-2.4-2.4-4.4-0.7c-0.8,0.6-0.8,1.2-1.7,1.8c-1.8,1.1-3.4-0.3-4.8,2.1c-1,1.7-0.7,4-0.6,5.9
	c0.1,1.6-1.7,2.2-3,1.7c-1.9-0.8-4.3-1.7-6.2-0.5c-0.8,0.5-1.2,1.4-2.1,1.8c-1.1,0.5-2.2,0.6-3.3,0.4c-0.8-0.1-1.5-0.7-2.3-0.8
	c-0.6,0-1.3,0.1-1.9,0.1c0.1,0.3,0.1,0.5,0,0.8c-1.1,1.7-1.1,1.9-3.1,2.6c-2.2,0.7-1.7,1.5-1.7,3.6c0,1.4-0.3,2.4-0.9,3.6
	c-0.5,1-1.8,1.2-2.7,0.7c-1.3-0.7-7.5-3-8.6-1.2c-1.1,1.9-4.2,0.7-3.6-1.5c1.7-5.8,3.5-11.7,6.5-17c2.8-5,6.6-9.4,10.6-13.4
	c8.3-8.4,21.2-12.7,32.4-15.5c6.1-1.5,12.3-2.1,18.6-2.3c6.2-0.2,12.6-0.6,18.7,0.3c6.1,0.9,11.8,3.7,17.4,5.9
	c3.3,1.3,6.5,2.5,9.8,3.8c1.4,0.5,2.8,1.4,4.2,1.7c-0.8-4.6,1.1-9.2,3-13.5c2.4-5.3,6.1-9.4,11.5-11.7c11.6-5.1,23.9-0.5,33.7,6.2
	c1.3,0.9,1.2,3-0.3,3.5c-0.6,1-1.5,1.6-2.7,2c-2.5,0.8-7.6-1-5.9,3.9c0.5,1.3-1.1,3-2.4,2.4c-1.3-0.5-3-1.3-4.4-1.2
	c-2.1,0.2-1.9,1-3.2,2c-0.7,0.5-1.7,0.5-2.2,0.9c-0.4,0.2-0.6,0.3-0.7,0.3c0.3,0.6,0.5,1.3,0.8,1.9c0.4,1-0.5,2.1-1.4,2.4
	c-1.6,0.5-5.6,1.6-4.3,4.4c0.9,1.9-0.9,3.5-2.7,2.7c-1.4-0.6-3.4-1.9-3.8,0.4c-0.1,0.6-0.8,1.3-1.4,1.4c-0.9,0.2-2.2-0.1-3,0.1
	c-1.5-0.4-1.8,0.3-0.9,2.1c0,0.1,0,0.1,0,0.2c11.6-4,23.2-8.3,35.4-9.7c11.8-1.3,24.1-0.8,35.7,1.7c10.2,2.2,20.1,6.3,28.2,13
	c8.1,6.7,15.5,16.3,20.3,25.8c0.4,0.3,0.8,0.7,0.9,1.2c0.1,0.5,0.2,1,0.4,1.4c0.5,2.1-2.6,3.6-3.6,1.5c-0.1-0.2-0.2-0.3-0.2-0.5
	c-3.4,0-6.9,0.2-10.2-0.2c-2.6-0.4-3.7-1.9-5.4-3.7c-4.1-4.1-10.1-6-13.1-11.2c-0.3-0.4-0.6-1.8-1.1-2c-0.7-0.3-0.3,0.1-1.1,0.5
	c-0.9,0.5-1.4,1-2.4,1.2c-2.5,0.5-4.7-0.5-6.9-1.7c-2.5-1.4-6-1.1-8.1-3.1c-1.7-1.7-2.8-4.5-3.9-7c-0.2,0.1-0.3,0.3-0.5,0.4
	c-0.3,1.1-1.9,1.9-2.9,1.2c-1.4-1.1-3.3-2.8-5.3-2.6c-1.5,0.2-2.1,1.5-3.5,1.6c-2.3,0.3-5-3.2-6.9-0.4c-0.7,1.1-2.1,1.3-3.1,0.4
	c-1-1-2.2-1.4-3.4-1.4c-0.1,0.2-0.2,0.4-0.3,0.7c-0.6,1.2-2.2,1.1-3.1,0.4c-0.9-0.7-1.9-0.9-2.8-0.8c0.9,1.6-1.2,3.8-2.7,2.6
	c-1.3-1-2.7-1.9-4.2-2.6c-0.5-0.2-5.4-1.5-5.6-1.8c0.9,1.8-0.9,3.5-2.7,2.7c-1.4-0.7-5.1-2.5-6.1,0.1c-0.5,1.3-1.6,1.7-2.9,1.2
	c-2-0.9-4.3-0.2-5.6,1.4c12.1,1.1,24.2,2.4,36.2,4.1c11.7,1.6,24.9,2.2,35.7,7.6c10.2,5.1,20.3,13,28.5,20.8
	c7.7,7.3,13.9,16.1,17.1,26.3c0.4,1.3-0.7,2.4-1.9,2.5c-1,0.1-1.6,0.1-2.5-0.3c-0.9-0.4-1.5-1.5-2.4-1.8c-3.2-1.1-3.4,0.7-4.6,2.1
	c-0.6,0.8-1.3,1.5-2.4,1.8c-1.4,0.4-3.2-1.1-4.4-0.5c-0.7,0.4-1.8,0.4-2.4-0.3c-2.1-2.4-4.3-4.8-6.4-7.2c-1.1,0.7-2.2,1.4-3.4,2
	c-0.9,0.4-2.2,0.3-2.7-0.7c-1-2.3-2.2-4.4-3.6-6.5c-1.2,0.7-2.4,1.4-3.7,1.9c-0.9,0.4-2.2,0.3-2.7-0.7c-1-1.9-1.9-3.8-2.9-5.7
	c-0.2-0.4-0.4-0.7-0.6-1.1c0,0-0.1,0.1-0.1,0.1c-2,0.9-4.3,0-5.7-1.6c-2.3-2.5-2.8-6.1-4.9-8.8c-0.7-0.9-3.6-4.4-4.5-4.1
	c-0.7,0.2-1.5,4.3-1.8,5.2c-0.4,1.3-2.3,2.1-3.3,0.9c-2.2-2.6-4.3-5.1-6.5-7.7c-0.5,0.9-1,1.7-1.4,2.7c-0.6,1.4-2.7,1.2-3.4,0
	c-0.6-1.1-2.6-5.9-3.8-6c-0.7-0.1-1.4,2-2.1,2.7c-0.5,0.6-1.7,0.8-2.4,0.3c-1.9-1.5-3.5-3.1-4.7-5.2c-0.8-1.4-0.8-1.9-2.2-2.6
	c-0.9-0.5-2.1-0.6-3.1-1c-3.2-1.6-5.4-4.5-6.3-7.9c-0.2,0.2-0.4,0.5-0.6,0.8c-0.4,0.5-1.3,0.7-1.9,0.5c-2.1-0.5-4-0.9-6-1.2
	c4.4,4.3,8.7,8.7,12.9,13.3c2.2,2.4,4.6,4.8,6.6,7.5c0.6,0,1.1,0.3,1.4,1c0.4,1,0.9,2,1.3,3c0.8,1.4,1.5,2.9,1.9,4.5
	c0.6,2.1-2.7,3.6-3.6,1.5c0-0.1,0-0.1-0.1-0.2c-0.7,0-1.2,0-1.8,0.1c0.1,0.6,0.3,1.2,0.7,1.7c1,1.9-1.5,4.1-3.1,2.4
	c-2.4-2.6-6.2-2.2-9.2-3.8c-2.9-1.5-3-3.9-4.9-6c-0.6-0.7-1.4-0.9-1.9-1.7c-0.8-1.4-1.1-3.2-1.6-4.7c-0.7-2.1-1.4-4.1-2-6.2
	c-0.4-1.1-0.6-2.8-1.3-3.7c0-0.9-0.3-1.2-1-0.8c-0.3,0-0.5,0-0.6,0.1c0.2,0.6,0.5,1.2,0.7,1.8c0.2,0.5,0.1,1-0.1,1.4
	c0.8,3.7,1.7,7.5,1.8,11.1c0.1,3.4-2.5,5.6-3.6,8.6c1.7,1.3,3,3,3.6,5.1c1.1,3.5-0.5,5.6-0.9,8.8c-0.4,2.8,2.9,4.3,3.9,6.8
	c1,2.5,0.1,4.7-1.4,6.7c-0.7,1-2,2.1-2.1,3.3c-0.3,1.9,1.5,3.3,2.6,4.5c1.6,1.9,3.1,3.9,2.7,6.6c-0.4,3-3.1,4.7-3.9,7.4
	c-0.8,3.2,2.2,6.3,1.5,9.7c-0.4,1.8-1.8,3.6-1.5,5.6c0.2,1.4,1.4,2.7,1.8,4.1c0.9,3.3-0.3,6.4-1,9.6c-0.8,4.1,2,6,2.7,9.7
	c0.8,3.8-1.7,8-1.7,11.8c0,2.1,0.2,4.2,0.7,6.2c0.4,1.8,1.5,3.8,1.4,5.7c0,0.9-0.4,1.8-0.8,2.7c-1.1,2.1-2,2.9-1.4,5.6
	c0.6,2.6,0.8,4.6,0.1,7.2c-0.9,3.4-3.2,6.9-0.9,10.2c1.9,2.7,2.9,4.4,1.8,7.8c-0.7,2.3-1.9,3.7-0.6,6.2c0.9,1.6,2,2.7,2.4,4.6
	c0.8,3.6,0.4,7.8,0.3,11.7c44.7-20.3,83.5-34.5,148.2-9C1197.4,593.1,1235,621,1235,621c-89,27.4-740.2,13.9-740.2,13.9
	S546.4,628.4,563,623.6z"/>
<g class="st1">
	<g>
		<circle class="st2" cx="1144" cy="249" r="40.3"/>
	</g>
	<g>
		<g>
			<rect x="1141.9" y="182.9" class="st2" width="3.5" height="18.8"/>
		</g>
		<g>
			<rect x="1141.9" y="153" class="st2" width="3.5" height="18.8"/>
		</g>
	</g>
	<g>
		<g>
			
				<rect x="1174.5" y="206.9" transform="matrix(0.7071 -0.7071 0.7071 0.7071 199.1918 898.2203)" class="st2" width="18.8" height="3.5"/>
		</g>
		<g>
			
				<rect x="1195.6" y="185.8" transform="matrix(0.7071 -0.7071 0.7071 0.7071 220.344 906.9819)" class="st2" width="18.8" height="3.5"/>
		</g>
	</g>
	<g>
		<g>
			<rect x="1191.3" y="246.9" class="st2" width="18.8" height="3.5"/>
		</g>
		<g>
			<rect x="1221.2" y="246.9" class="st2" width="18.8" height="3.5"/>
		</g>
	</g>
	<g>
		<g>
			
				<rect x="1182.6" y="279.5" transform="matrix(0.7071 -0.7071 0.7071 0.7071 142.6405 922.0521)" class="st2" width="3.5" height="18.8"/>
		</g>
		<g>
			
				<rect x="1203.7" y="300.6" transform="matrix(0.7071 -0.7071 0.7071 0.7071 133.879 943.2043)" class="st2" width="3.5" height="18.8"/>
		</g>
	</g>
	<g>
		<g>
			<rect x="1142.6" y="296.3" class="st2" width="3.5" height="18.8"/>
		</g>
		<g>
			<rect x="1142.6" y="326.2" class="st2" width="3.5" height="18.8"/>
		</g>
	</g>
	<g>
		<g>
			
				<rect x="1094.8" y="287.6" transform="matrix(0.7071 -0.7071 0.7071 0.7071 118.8087 865.5008)" class="st2" width="18.8" height="3.5"/>
		</g>
		<g>
			
				<rect x="1073.6" y="308.7" transform="matrix(0.7071 -0.7071 0.7071 0.7071 97.6565 856.7393)" class="st2" width="18.8" height="3.5"/>
		</g>
	</g>
	<g>
		<g>
			<rect x="1077.9" y="247.6" class="st2" width="18.8" height="3.5"/>
		</g>
		<g>
			<rect x="1048" y="247.6" class="st2" width="18.8" height="3.5"/>
		</g>
	</g>
	<g>
		<g>
			
				<rect x="1101.9" y="199.8" transform="matrix(0.7071 -0.7071 0.7071 0.7071 175.36 841.669)" class="st2" width="3.5" height="18.8"/>
		</g>
		<g>
			
				<rect x="1080.8" y="178.6" transform="matrix(0.7071 -0.7071 0.7071 0.7071 184.1215 820.5168)" class="st2" width="3.5" height="18.8"/>
		</g>
	</g>
</g>
</svg>
