<?xml version="1.0" encoding="utf-8"?>
<!-- Generator: Adobe Illustrator 23.0.1, SVG Export Plug-In . SVG Version: 6.00 Build 0)  -->
<svg version="1.1" id="Layer_1" xmlns="http://www.w3.org/2000/svg" xmlns:xlink="http://www.w3.org/1999/xlink" x="0px" y="0px"
	 viewBox="0 0 320 320" style="enable-background:new 0 0 320 320;" xml:space="preserve">
<style type="text/css">
	.st0{fill:#FFFFFF;}
	.st1{fill:#808080;stroke:#A5A5A5;stroke-miterlimit:10;}
	.st2{fill:#666666;stroke:#A5A5A5;stroke-miterlimit:10;}
	.st3{fill:#F2F2F2;}
	.st4{fill:#39B54A;}
	.st5{fill:#F7C726;}
	.st6{fill:none;stroke:#FFFFFF;stroke-width:3;stroke-linecap:round;stroke-miterlimit:10;}
	.st7{fill:#ED1C24;}
</style>
<g>
	<g>
		
			<image style="overflow:visible;opacity:0.7;" width="500" height="500" xlink:href="1220D84E117A0BC.png"  transform="matrix(1 0 0 1 -83 -83)">
		</image>
		<g>
			<g>
				<circle class="st0" cx="160" cy="160" r="160"/>
			</g>
		</g>
	</g>
</g>
<g>
	<path class="st1" d="M240,218H66c-4.4,0-8-3.6-8-8V96c0-4.4,3.6-8,8-8h174c4.4,0,8,3.6,8,8v114C248,214.4,244.4,218,240,218z"/>
	<path class="st2" d="M254,232H80c-4.4,0-8-3.6-8-8V110c0-4.4,3.6-8,8-8h174c4.4,0,8,3.6,8,8v114C262,228.4,258.4,232,254,232z"/>
	<path class="st3" d="M262,121.5H72V110c0-4.4,3.6-8,8-8h174c4.4,0,8,3.6,8,8V121.5z"/>
	<circle class="st4" cx="96" cy="113" r="4"/>
	<rect x="88" y="143" class="st5" width="50" height="50"/>
	<line class="st6" x1="161" y1="150" x2="233.5" y2="150"/>
	<line class="st6" x1="161" y1="162" x2="213.5" y2="162"/>
	<line class="st6" x1="161" y1="174" x2="233.5" y2="174"/>
	<line class="st6" x1="161" y1="186" x2="223.5" y2="186"/>
	<line class="st6" x1="161" y1="198" x2="192.5" y2="198"/>
	<circle class="st7" cx="84" cy="113" r="4"/>
</g>
</svg>
